<svg width="420" height="198" viewBox="0 0 420 198" fill="none" xmlns="http://www.w3.org/2000/svg">
<g clip-path="url(#clip0_734_356)">
<rect width="420" height="197" transform="translate(420 198) rotate(-180)" fill="#F1EEEB"/>
<g opacity="0.1">
<path d="M378.623 24.368C371.736 24.368 366.153 29.9512 366.153 36.8383C366.153 43.7255 371.736 49.3086 378.623 49.3086C385.511 49.3086 391.094 43.7255 391.094 36.8383C391.094 29.9512 385.511 24.368 378.623 24.368Z" fill="#E5D5C5"/>
<path d="M319.059 24.368C312.172 24.368 306.589 29.9512 306.589 36.8383C306.589 43.7255 312.172 49.3086 319.059 49.3086C325.946 49.3086 331.529 43.7255 331.529 36.8383C331.529 29.9512 325.946 24.368 319.059 24.368Z" fill="#E5D5C5"/>
<path d="M258.133 24.367C251.246 24.367 245.663 29.9502 245.663 36.8373C245.663 43.7245 251.246 49.3077 258.133 49.3077C265.02 49.3077 270.604 43.7245 270.604 36.8373C270.604 29.9502 265.02 24.367 258.133 24.367Z" fill="#E5D5C5"/>
<path d="M216.989 -24.36L219.394 -23.2066C224.933 -31.9989 229.949 -41.0415 234.617 -50.2582C241.93 -37.7335 249.71 -25.4699 257.599 -13.2825C249.438 1.18998 241.418 15.7495 234.149 30.6573C227.686 19.2425 220.754 8.0889 213.072 -2.64035L210.743 -1.33456C216.499 12.3545 223.203 25.5321 230.461 38.3941C225.455 49.1778 220.885 60.1791 216.989 71.496L219.394 72.6494C224.933 63.8571 229.949 54.8145 234.617 45.5978C242.365 58.8733 250.657 71.8442 259.014 84.7715C270.037 71.9095 280.124 58.4272 289.319 44.3681C297.763 57.0779 306.719 69.4829 316.926 81.0282L318.112 79.9292C329.407 68.6668 339.57 56.4576 348.918 43.6282C359.669 57.894 371.345 71.5177 383.369 84.7606C390.855 72.4209 398.07 59.8853 404.795 47.0886C409.397 57.2084 414.36 67.1651 419.746 76.9041L422.194 75.8486C418.277 63.4871 413.761 51.3433 408.788 39.3844C415.654 25.8259 421.933 11.9737 427.385 -2.21595L425.002 -3.41293C417.853 7.78423 411.334 19.3296 405.273 31.1253C398.821 16.3154 391.715 1.77759 384.239 -12.5426C391.421 -24.4253 398.331 -36.4821 404.795 -48.7783C409.398 -38.6584 414.36 -28.7018 419.746 -18.9518L422.194 -20.0074C418.277 -32.3689 413.761 -44.5236 408.788 -56.4825C415.654 -70.0301 421.933 -83.8714 427.385 -98.0719L425.002 -99.2798C417.853 -88.0826 411.324 -76.5264 405.273 -64.7307C398.461 -80.3567 390.931 -95.678 383.021 -110.76C371.138 -97.6802 359.582 -84.2088 348.928 -70.1171C339.69 -82.7398 329.668 -94.7531 318.536 -105.841L317.35 -106.94C306.969 -95.1883 297.883 -82.5657 289.319 -69.6274C279.994 -83.9585 269.732 -97.702 258.513 -110.771C250.047 -95.7542 241.69 -80.6723 234.149 -65.1987C227.686 -76.6134 220.754 -87.7671 213.072 -98.4963L210.743 -97.2014C216.499 -83.5124 223.203 -70.3348 230.461 -57.4727C225.455 -46.6782 220.885 -35.6769 216.989 -24.36ZM259.123 79.4504C252.441 65.5437 245.651 51.6915 238.295 38.1548C245.771 22.6485 252.365 6.71782 258.807 -9.27812C265.837 6.33697 274.411 20.9618 283.421 35.3147C274.52 49.5151 266.054 64.0094 259.123 79.4504ZM317.067 76.1206C310.462 62.0834 303.139 48.4705 295.075 35.3255C303.313 21.9629 310.778 8.11068 317.492 -6.17686C324.684 8.13244 333.107 21.6909 342.356 34.6835C332.933 47.8611 324.369 61.6046 317.067 76.1206ZM401.236 39.1232C394.686 52.3988 388.679 65.9355 382.977 79.581C374.348 64.2379 365.262 49.1125 355.272 34.6509C365.055 20.4504 373.967 5.59703 382.433 -9.44133C388.146 6.94635 394.305 23.2143 401.236 39.1232ZM382.433 -105.308C388.146 -88.9205 394.305 -72.6525 401.236 -56.7436C394.686 -43.479 388.679 -29.9314 382.977 -16.2859C374.348 -31.618 365.262 -46.7434 355.272 -61.2051C365.055 -75.4056 373.967 -90.2589 382.433 -105.308ZM317.492 -102.033C324.684 -87.7344 333.107 -74.1759 342.356 -61.1724C332.933 -47.9948 324.369 -34.2514 317.067 -19.7353C310.462 -33.7835 303.139 -47.3964 295.065 -60.5413C303.313 -73.893 310.778 -87.7453 317.492 -102.033ZM316.926 -14.8277L318.112 -15.9377C329.407 -27.2001 339.57 -39.4093 348.918 -52.2278C359.103 -38.7128 370.126 -25.7637 381.475 -13.1846C370.137 -0.638125 359.125 12.2674 348.928 25.7389C339.69 13.1271 329.668 1.11381 318.536 -9.97454L317.35 -11.0845C306.969 0.667654 297.883 13.3012 289.319 26.2285C280.516 12.7027 270.886 -0.289919 260.396 -12.7058C270.886 -25.0673 280.505 -38.0055 289.319 -51.4878C297.763 -38.789 306.719 -26.3731 316.926 -14.8277ZM258.807 -105.123C265.837 -89.5299 274.411 -74.905 283.421 -60.5522C274.52 -46.3408 266.065 -31.8574 259.123 -16.4056C252.441 -30.3123 245.651 -44.1645 238.295 -57.7012C245.76 -73.1966 252.365 -89.1273 258.807 -105.123Z" fill="#E5D5C5"/>
<path d="M353.684 -23.5548C346.797 -23.5548 341.214 -17.9717 341.214 -11.0845C341.214 -4.19738 346.797 1.38578 353.684 1.38578C360.571 1.38578 366.154 -4.19738 366.154 -11.0845C366.154 -17.9717 360.571 -23.5548 353.684 -23.5548Z" fill="#E5D5C5"/>
<path d="M45.6012 24.368C53.0309 24.368 59.0539 29.9512 59.0539 36.8383C59.0539 43.7255 53.0309 49.3086 45.6012 49.3086C38.1714 49.3086 32.1484 43.7255 32.1484 36.8383C32.1484 29.9512 38.1714 24.368 45.6012 24.368Z" fill="#E5D5C5"/>
<path d="M109.861 24.368C117.291 24.368 123.314 29.9512 123.314 36.8383C123.314 43.7255 117.291 49.3086 109.861 49.3086C102.431 49.3086 96.4082 43.7255 96.4082 36.8383C96.4082 29.9512 102.431 24.368 109.861 24.368Z" fill="#E5D5C5"/>
<path d="M175.586 24.368C183.015 24.368 189.038 29.9512 189.038 36.8383C189.038 43.7255 183.015 49.3086 175.586 49.3086C168.156 49.3086 162.133 43.7255 162.133 36.8383C162.133 29.9512 168.156 24.368 175.586 24.368Z" fill="#E5D5C5"/>
<path d="M219.971 -24.36L217.376 -23.2065C211.401 -31.9989 205.99 -41.0415 200.954 -50.2582C193.065 -37.7335 184.672 -25.4699 176.161 -13.2825C184.965 1.19001 193.617 15.7496 201.458 30.6574C208.431 19.2426 215.909 8.08894 224.197 -2.64031L226.709 -1.33452C220.499 12.3545 213.268 25.5321 205.438 38.3942C210.838 49.1778 215.768 60.1791 219.971 71.496L217.376 72.6494C211.401 63.8571 205.99 54.8145 200.954 45.5978C192.596 58.8733 183.651 71.8442 174.635 84.7715C162.744 71.9095 151.862 58.4272 141.943 44.3682C132.833 57.0779 123.172 69.4829 112.161 81.0283L110.882 79.9292C98.6966 68.6668 87.7325 56.4576 77.6488 43.6282C66.0509 57.894 53.4551 71.5177 40.4836 84.7606C32.4073 72.4209 24.6245 59.8853 17.3698 47.0886C12.4043 57.2084 7.0514 67.1651 1.24067 76.9041L-1.40057 75.8486C2.82541 63.4871 7.69704 51.3433 13.0617 39.3844C5.65448 25.8259 -1.11883 11.9737 -6.99999 -2.21595L-4.42919 -3.41293C3.28323 7.78423 10.3148 19.3296 16.8533 31.1253C23.8145 16.3154 31.4799 1.77759 39.5445 -12.5426C31.7969 -24.4253 24.3427 -36.4821 17.3699 -48.7783C12.4043 -38.6584 7.05141 -28.7018 1.24068 -18.9518L-1.40056 -20.0074C2.82542 -32.3689 7.69705 -44.5236 13.0617 -56.4825C5.65449 -70.0301 -1.11882 -83.8714 -6.99998 -98.0719L-4.42918 -99.2798C3.28324 -88.0826 10.3266 -76.5264 16.8534 -64.7307C24.2019 -80.3567 32.3252 -95.678 40.8593 -110.76C53.6781 -97.6802 66.1448 -84.2088 77.6371 -70.1171C87.6034 -82.7397 98.4149 -94.753 110.424 -105.841L111.703 -106.94C122.902 -95.1883 132.704 -82.5656 141.943 -69.6274C152.003 -83.9585 163.072 -97.702 175.175 -110.771C184.308 -95.7541 193.323 -80.6722 201.458 -65.1986C208.431 -76.6134 215.909 -87.7671 224.197 -98.4963L226.709 -97.2014C220.499 -83.5123 213.268 -70.3347 205.438 -57.4727C210.838 -46.6781 215.768 -35.6768 219.971 -24.36ZM174.518 79.4504C181.725 65.5438 189.051 51.6915 196.986 38.1548C188.921 22.6485 181.808 6.71785 174.858 -9.27809C167.275 6.337 158.025 20.9619 148.305 35.3147C157.907 49.5152 167.04 64.0095 174.518 79.4504ZM112.008 76.1207C119.134 62.0834 127.034 48.4705 135.733 35.3256C126.846 21.963 118.793 8.1107 111.551 -6.17684C103.791 8.13246 94.7054 21.6909 84.7274 34.6835C94.8932 47.8612 104.132 61.6046 112.008 76.1207ZM21.2085 39.1232C28.2752 52.3988 34.7551 65.9355 40.9062 79.581C50.2151 64.238 60.0171 49.1125 70.7933 34.6509C60.2401 20.4504 50.626 5.59704 41.4932 -9.44132C35.3303 6.94636 28.6861 23.2143 21.2085 39.1232ZM41.4932 -105.308C35.3303 -88.9205 28.6861 -72.6525 21.2085 -56.7436C28.2753 -43.4789 34.7551 -29.9314 40.9062 -16.2859C50.2152 -31.618 60.0171 -46.7434 70.7934 -61.2051C60.2401 -75.4056 50.626 -90.2589 41.4932 -105.308ZM111.551 -102.033C103.791 -87.7344 94.7054 -74.1759 84.7274 -61.1724C94.8932 -47.9948 104.132 -34.2514 112.008 -19.7353C119.134 -33.7835 127.034 -47.3963 135.744 -60.5413C126.846 -73.893 118.794 -87.7453 111.551 -102.033ZM112.161 -14.8277L110.882 -15.9376C98.6966 -27.2001 87.7325 -39.4092 77.6489 -52.2278C66.6613 -38.7128 54.7698 -25.7637 42.5262 -13.1846C54.7581 -0.638114 66.6378 12.2675 77.6371 25.7389C87.6034 13.1271 98.4149 1.11382 110.424 -9.97452L111.703 -11.0844C122.902 0.667676 132.704 13.3012 141.943 26.2286C151.439 12.7027 161.828 -0.289891 173.144 -12.7058C161.828 -25.0673 151.451 -38.0055 141.943 -51.4878C132.833 -38.789 123.172 -26.3731 112.161 -14.8277ZM174.858 -105.123C167.275 -89.5299 158.025 -74.905 148.305 -60.5522C157.907 -46.3408 167.028 -31.8574 174.518 -16.4055C181.725 -30.3122 189.051 -44.1645 196.986 -57.7012C188.933 -73.1966 181.808 -89.1273 174.858 -105.123Z" fill="#E5D5C5"/>
<path d="M72.5074 -23.5548C79.9371 -23.5548 85.9601 -17.9717 85.9601 -11.0845C85.9601 -4.19737 79.9371 1.38578 72.5074 1.38578C65.0777 1.38578 59.0547 -4.19738 59.0547 -11.0845C59.0547 -17.9717 65.0777 -23.5548 72.5074 -23.5548Z" fill="#E5D5C5"/>
</g>
</g>
<defs>
<clipPath id="clip0_734_356">
<rect width="420" height="198" fill="white" transform="translate(420 198) rotate(-180)"/>
</clipPath>
</defs>
</svg>
