<svg width="420" height="198" viewBox="0 0 420 198" fill="none" xmlns="http://www.w3.org/2000/svg">
<g clip-path="url(#clip0_734_356)">
<rect width="420" height="197" fill="#F1EEEB"/>
<g opacity="0.1">
<path d="M41.3766 173.632C48.2637 173.632 53.8469 168.049 53.8469 161.162C53.8469 154.275 48.2637 148.691 41.3766 148.691C34.4894 148.691 28.9062 154.275 28.9062 161.162C28.9062 168.049 34.4894 173.632 41.3766 173.632Z" fill="#E5D5C5"/>
<path d="M100.941 173.632C107.828 173.632 113.411 168.049 113.411 161.162C113.411 154.275 107.828 148.691 100.941 148.691C94.0539 148.691 88.4707 154.275 88.4707 161.162C88.4707 168.049 94.0539 173.632 100.941 173.632Z" fill="#E5D5C5"/>
<path d="M161.867 173.632C168.754 173.632 174.337 168.049 174.337 161.162C174.337 154.275 168.754 148.691 161.867 148.691C154.98 148.691 149.396 154.275 149.396 161.162C149.396 168.049 154.98 173.632 161.867 173.632Z" fill="#E5D5C5"/>
<path d="M203.011 222.36L200.606 221.207C195.067 229.999 190.051 239.042 185.383 248.258C178.07 235.734 170.29 223.47 162.401 211.283C170.562 196.81 178.582 182.25 185.851 167.343C192.314 178.757 199.246 189.911 206.928 200.64L209.257 199.335C203.501 185.646 196.797 172.468 189.539 159.606C194.545 148.822 199.115 137.821 203.011 126.504L200.606 125.351C195.067 134.143 190.051 143.186 185.383 152.402C177.635 139.127 169.343 126.156 160.986 113.229C149.963 126.091 139.876 139.573 130.681 153.632C122.237 140.922 113.281 128.517 103.074 116.972L101.888 118.071C90.5931 129.333 80.4297 141.542 71.0824 154.372C60.3314 140.106 48.6554 126.482 36.6313 113.239C29.1447 125.579 21.9302 138.115 15.2054 150.911C10.6025 140.792 5.6405 130.835 0.254111 121.096L-2.19425 122.151C1.72313 134.513 6.23899 146.657 11.2119 158.616C4.34559 172.174 -1.93309 186.026 -7.38477 200.216L-5.0017 201.413C2.14751 190.216 8.66559 178.67 14.7266 166.875C21.1794 181.685 28.2851 196.222 35.7608 210.543C28.5789 222.425 21.6691 234.482 15.2054 246.778C10.6025 236.658 5.6405 226.702 0.254111 216.952L-2.19425 218.007C1.72313 230.369 6.23899 242.524 11.2119 254.483C4.34559 268.03 -1.93309 281.871 -7.38477 296.072L-5.0017 297.28C2.14751 286.083 8.67647 274.526 14.7266 262.731C21.5385 278.357 29.0686 293.678 36.9795 308.76C48.8622 295.68 60.4184 282.209 71.0715 268.117C80.31 280.74 90.332 292.753 101.464 303.841L102.65 304.94C113.031 293.188 122.117 280.566 130.681 267.627C140.006 281.959 150.268 295.702 161.487 308.771C169.953 293.754 178.31 278.672 185.851 263.199C192.314 274.613 199.246 285.767 206.928 296.496L209.257 295.201C203.501 281.512 196.797 268.335 189.539 255.473C194.545 244.678 199.115 233.677 203.011 222.36ZM160.877 118.55C167.559 132.456 174.349 146.309 181.705 159.845C174.229 175.352 167.635 191.282 161.193 207.278C154.163 191.663 145.589 177.038 136.579 162.685C145.48 148.485 153.946 133.991 160.877 118.55ZM102.933 121.879C109.538 135.917 116.861 149.53 124.925 162.674C116.687 176.037 109.222 189.889 102.508 204.177C95.3157 189.868 86.8934 176.309 77.644 163.316C87.0675 150.139 95.6313 136.395 102.933 121.879ZM18.7637 158.877C25.3144 145.601 31.3211 132.065 37.023 118.419C45.6521 133.762 54.7383 148.888 64.7276 163.349C54.945 177.55 46.033 192.403 37.5671 207.441C31.8543 191.054 25.6953 174.786 18.7637 158.877ZM37.5671 303.308C31.8543 286.921 25.6953 270.653 18.7637 254.744C25.3144 241.479 31.3211 227.931 37.023 214.286C45.6521 229.618 54.7383 244.743 64.7276 259.205C54.945 273.406 46.033 288.259 37.5671 303.308ZM102.508 300.033C95.3157 285.734 86.8934 272.176 77.644 259.172C87.0675 245.995 95.6313 232.251 102.933 217.735C109.538 231.784 116.861 245.396 124.935 258.541C116.687 271.893 109.222 285.745 102.508 300.033ZM103.074 212.828L101.888 213.938C90.5931 225.2 80.4297 237.409 71.0824 250.228C60.8972 236.713 49.8742 223.764 38.5247 211.185C49.8633 198.638 60.8755 185.733 71.0715 172.261C80.31 184.873 90.332 196.886 101.464 207.975L102.65 209.084C113.031 197.332 122.117 184.699 130.681 171.771C139.484 185.297 149.114 198.29 159.604 210.706C149.114 223.067 139.495 236.006 130.681 249.488C122.237 236.789 113.281 224.373 103.074 212.828ZM161.193 303.123C154.163 287.53 145.589 272.905 136.579 258.552C145.48 244.341 153.935 229.857 160.877 214.406C167.559 228.312 174.349 242.165 181.705 255.701C174.24 271.197 167.635 287.127 161.193 303.123Z" fill="#E5D5C5"/>
<path d="M66.316 221.555C73.2032 221.555 78.7863 215.972 78.7863 209.085C78.7863 202.197 73.2032 196.614 66.316 196.614C59.4288 196.614 53.8457 202.197 53.8457 209.085C53.8457 215.972 59.4288 221.555 66.316 221.555Z" fill="#E5D5C5"/>
<path d="M374.399 173.632C366.969 173.632 360.946 168.049 360.946 161.162C360.946 154.275 366.969 148.691 374.399 148.691C381.829 148.691 387.852 154.275 387.852 161.162C387.852 168.049 381.829 173.632 374.399 173.632Z" fill="#E5D5C5"/>
<path d="M310.139 173.632C302.709 173.632 296.686 168.049 296.686 161.162C296.686 154.275 302.709 148.691 310.139 148.691C317.569 148.691 323.592 154.275 323.592 161.162C323.592 168.049 317.569 173.632 310.139 173.632Z" fill="#E5D5C5"/>
<path d="M244.414 173.632C236.985 173.632 230.962 168.049 230.962 161.162C230.962 154.275 236.985 148.691 244.414 148.691C251.844 148.691 257.867 154.275 257.867 161.162C257.867 168.049 251.844 173.632 244.414 173.632Z" fill="#E5D5C5"/>
<path d="M200.029 222.36L202.624 221.207C208.599 229.999 214.01 239.042 219.046 248.258C226.935 235.734 235.328 223.47 243.839 211.283C235.035 196.81 226.383 182.25 218.542 167.343C211.569 178.757 204.091 189.911 195.803 200.64L193.291 199.335C199.501 185.646 206.732 172.468 214.562 159.606C209.162 148.822 204.232 137.821 200.029 126.504L202.624 125.351C208.599 134.143 214.01 143.186 219.046 152.402C227.404 139.127 236.349 126.156 245.365 113.229C257.256 126.091 268.138 139.573 278.058 153.632C287.167 140.922 296.828 128.517 307.839 116.972L309.118 118.071C321.303 129.333 332.267 141.542 342.351 154.372C353.949 140.106 366.545 126.482 379.516 113.239C387.593 125.579 395.376 138.115 402.63 150.911C407.596 140.792 412.949 130.835 418.759 121.096L421.401 122.151C417.175 134.513 412.303 146.657 406.938 158.616C414.346 172.174 421.119 186.026 427 200.216L424.429 201.413C416.717 190.216 409.685 178.67 403.147 166.875C396.186 181.685 388.52 196.222 380.455 210.543C388.203 222.425 395.657 234.482 402.63 246.778C407.596 236.658 412.949 226.702 418.759 216.952L421.401 218.007C417.175 230.369 412.303 242.524 406.938 254.483C414.346 268.03 421.119 281.871 427 296.072L424.429 297.28C416.717 286.083 409.673 274.526 403.147 262.731C395.798 278.357 387.675 293.678 379.141 308.76C366.322 295.68 353.855 282.209 342.363 268.117C332.397 280.74 321.585 292.753 309.576 303.841L308.297 304.94C297.098 293.188 287.296 280.566 278.058 267.627C267.997 281.959 256.928 295.702 244.825 308.771C235.692 293.754 226.677 278.672 218.542 263.199C211.569 274.613 204.091 285.767 195.803 296.496L193.291 295.201C199.501 281.512 206.732 268.335 214.562 255.473C209.162 244.678 204.232 233.677 200.029 222.36ZM245.482 118.55C238.275 132.456 230.95 146.309 223.014 159.845C231.079 175.352 238.192 191.282 245.142 207.278C252.725 191.663 261.975 177.038 271.695 162.685C262.093 148.485 252.96 133.991 245.482 118.55ZM307.992 121.879C300.866 135.917 292.966 149.53 284.267 162.674C293.154 176.037 301.207 189.889 308.449 204.177C316.209 189.868 325.295 176.309 335.273 163.316C325.107 150.139 315.868 136.395 307.992 121.879ZM398.792 158.877C391.725 145.601 385.245 132.065 379.094 118.419C369.785 133.762 359.983 148.888 349.207 163.349C359.76 177.55 369.374 192.403 378.507 207.441C384.67 191.054 391.314 174.786 398.792 158.877ZM378.507 303.308C384.67 286.921 391.314 270.653 398.792 254.744C391.725 241.479 385.245 227.931 379.094 214.286C369.785 229.618 359.983 244.743 349.207 259.205C359.76 273.406 369.374 288.259 378.507 303.308ZM308.449 300.033C316.209 285.734 325.295 272.176 335.273 259.172C325.107 245.995 315.868 232.251 307.992 217.735C300.866 231.784 292.966 245.396 284.256 258.541C293.154 271.893 301.207 285.745 308.449 300.033ZM307.839 212.828L309.118 213.938C321.303 225.2 332.267 237.409 342.351 250.228C353.339 236.713 365.23 223.764 377.474 211.185C365.242 198.638 353.362 185.733 342.363 172.261C332.397 184.873 321.585 196.886 309.576 207.975L308.297 209.084C297.098 197.332 287.296 184.699 278.058 171.771C268.561 185.297 258.172 198.29 246.856 210.706C258.172 223.067 268.549 236.006 278.058 249.488C287.167 236.789 296.828 224.373 307.839 212.828ZM245.142 303.123C252.725 287.53 261.975 272.905 271.695 258.552C262.093 244.341 252.972 229.857 245.482 214.406C238.275 228.312 230.95 242.165 223.014 255.701C231.067 271.197 238.192 287.127 245.142 303.123Z" fill="#E5D5C5"/>
<path d="M347.493 221.555C340.063 221.555 334.04 215.972 334.04 209.085C334.04 202.197 340.063 196.614 347.493 196.614C354.922 196.614 360.945 202.197 360.945 209.085C360.945 215.972 354.922 221.555 347.493 221.555Z" fill="#E5D5C5"/>
</g>
</g>
<defs>
<clipPath id="clip0_734_356">
<rect width="420" height="198" fill="white"/>
</clipPath>
</defs>
</svg>
