<svg width="420" height="240" viewBox="0 0 420 240" fill="none" xmlns="http://www.w3.org/2000/svg">
<g clip-path="url(#clip0_737_187)">
<rect width="420" height="240" fill="#FAF7F3"/>
<g opacity="0.1">
<path d="M203.011 -8.25923L200.606 -9.5062C195.067 -0.000978206 190.051 9.77481 185.383 19.7388C178.07 6.19859 170.29 -7.05932 162.401 -20.2349C170.562 -35.8808 178.582 -51.6209 185.851 -67.7375C192.314 -55.3971 199.246 -43.3391 206.928 -31.74L209.257 -33.1516C203.501 -47.9506 196.797 -62.1967 189.539 -76.1016C194.545 -87.7596 199.115 -99.6529 203.011 -111.887L200.606 -113.134C195.067 -103.629 190.051 -93.8533 185.383 -83.8893C177.635 -98.2412 169.343 -112.264 160.986 -126.239C149.963 -112.334 139.876 -97.7589 130.681 -82.5599C122.237 -96.3002 113.281 -109.711 103.074 -122.192L101.888 -121.004C90.5931 -108.829 80.4297 -95.6296 71.0824 -81.76C60.3314 -97.1825 48.6554 -111.911 36.6313 -126.227C29.1447 -112.887 21.9302 -99.3353 15.2054 -85.5009C10.6025 -96.4413 5.6405 -107.205 0.254111 -117.734L-2.19425 -116.593C1.72313 -103.229 6.23899 -90.1006 11.2119 -77.1721C4.34559 -62.5143 -1.93309 -47.5389 -7.38477 -32.1987L-5.0017 -30.9047C2.14751 -43.0098 8.66559 -55.4912 14.7266 -68.2433C21.1794 -52.2326 28.2851 -36.5161 35.7608 -21.0348C28.5789 -8.18865 21.6691 4.84574 15.2054 18.1389C10.6025 7.19852 5.6405 -3.56544 0.254111 -14.1059L-2.19425 -12.9648C1.72313 0.398991 6.23899 13.5392 11.2119 26.4678C4.34559 41.1138 -1.93309 56.0775 -7.38477 71.4293L-5.0017 72.7351C2.14751 60.6301 8.67647 48.1368 14.7266 35.3848C21.5385 52.2777 29.0686 68.8413 36.9795 85.146C48.8622 71.0058 60.4184 56.4421 71.0715 41.2079C80.31 54.854 90.332 67.8414 101.464 79.8288L102.65 81.0169C113.031 68.3119 122.117 54.6658 130.681 40.6785C140.006 56.1716 150.268 71.0294 161.487 85.1578C169.953 68.9236 178.31 52.6189 185.851 35.8906C192.314 48.231 199.246 60.289 206.928 71.8881L209.257 70.4882C203.501 55.6893 196.797 41.4432 189.539 27.5383C194.545 15.8685 199.115 3.97521 203.011 -8.25923ZM160.877 -120.487C167.559 -105.452 174.349 -90.477 181.705 -75.8428C174.229 -59.0792 167.635 -41.8569 161.193 -24.564C154.163 -41.4452 145.589 -57.2558 136.579 -72.7724C145.48 -88.1243 153.946 -103.794 160.877 -120.487ZM102.933 -116.887C109.538 -101.712 116.861 -86.9949 124.925 -72.7842C116.687 -58.3381 109.222 -43.3627 102.508 -27.9167C95.3157 -43.3862 86.8934 -58.044 77.644 -72.0901C87.0675 -86.3362 95.6313 -101.194 102.933 -116.887ZM18.7637 -76.8898C25.3144 -91.2417 31.3211 -105.876 37.023 -120.628C45.6521 -104.041 54.7383 -87.689 64.7276 -72.0548C54.945 -56.7029 46.033 -40.6452 37.5671 -24.3875C31.8543 -42.1039 25.6953 -59.691 18.7637 -76.8898ZM37.5671 79.2523C31.8543 61.5359 25.6953 43.9489 18.7637 26.7501C25.3144 12.4099 31.3211 -2.23612 37.023 -16.988C45.6521 -0.412715 54.7383 15.9391 64.7276 31.5733C54.945 46.9252 46.033 62.9829 37.5671 79.2523ZM102.508 75.7114C95.3157 60.2537 86.8934 45.5958 77.644 31.538C87.0675 17.2919 95.6313 2.43414 102.933 -13.2589C109.538 1.9283 116.861 16.6449 124.935 30.8557C116.687 45.29 109.222 60.2654 102.508 75.7114ZM103.074 -18.5644L101.888 -17.3645C90.5931 -5.18886 80.4297 8.01023 71.0824 21.8681C60.8972 7.25734 49.8742 -6.74169 38.5247 -20.3407C49.8633 -33.9045 60.8755 -47.8565 71.0715 -62.4202C80.31 -48.7858 90.332 -35.7985 101.464 -23.8111L102.65 -22.6112C113.031 -35.3162 122.117 -48.9741 130.681 -62.9495C139.484 -48.327 149.114 -34.281 159.604 -20.8584C149.114 -7.49459 139.495 6.49268 130.681 21.0681C122.237 7.33968 113.281 -6.08292 103.074 -18.5644ZM161.193 79.0524C154.163 62.1947 145.589 46.384 136.579 30.8674C145.48 15.5038 153.935 -0.153909 160.877 -16.8586C167.559 -1.82438 174.349 13.151 181.705 27.7853C174.24 44.5371 167.635 61.7594 161.193 79.0524Z" fill="#E5D5C5"/>
<path d="M41.3766 42.6904C48.2637 42.6904 53.8469 36.6545 53.8469 29.2089C53.8469 21.7634 48.2637 15.7275 41.3766 15.7275C34.4894 15.7275 28.9062 21.7634 28.9062 29.2089C28.9062 36.6545 34.4894 42.6904 41.3766 42.6904Z" fill="#E5D5C5"/>
<path d="M100.941 42.6904C107.828 42.6904 113.411 36.6545 113.411 29.2089C113.411 21.7634 107.828 15.7275 100.941 15.7275C94.0539 15.7275 88.4707 21.7634 88.4707 29.2089C88.4707 36.6545 94.0539 42.6904 100.941 42.6904Z" fill="#E5D5C5"/>
<path d="M161.867 42.6904C168.754 42.6904 174.337 36.6545 174.337 29.2089C174.337 21.7634 168.754 15.7275 161.867 15.7275C154.98 15.7275 149.396 21.7634 149.396 29.2089C149.396 36.6545 154.98 42.6904 161.867 42.6904Z" fill="#E5D5C5"/>
<path d="M200.029 -8.25923L202.624 -9.5062C208.599 -0.000978206 214.01 9.77481 219.046 19.7388C226.935 6.19859 235.328 -7.05932 243.839 -20.2349C235.035 -35.8808 226.383 -51.6209 218.542 -67.7375C211.569 -55.3971 204.091 -43.3391 195.803 -31.74L193.291 -33.1516C199.501 -47.9506 206.732 -62.1967 214.562 -76.1016C209.162 -87.7596 204.232 -99.6529 200.029 -111.887L202.624 -113.134C208.599 -103.629 214.01 -93.8533 219.046 -83.8893C227.404 -98.2412 236.349 -112.264 245.365 -126.239C257.256 -112.334 268.138 -97.7589 278.058 -82.5599C287.167 -96.3002 296.828 -109.711 307.839 -122.192L309.118 -121.004C321.303 -108.829 332.267 -95.6296 342.351 -81.76C353.949 -97.1825 366.545 -111.911 379.516 -126.227C387.593 -112.887 395.376 -99.3353 402.63 -85.5009C407.596 -96.4413 412.949 -107.205 418.759 -117.734L421.401 -116.593C417.175 -103.229 412.303 -90.1006 406.938 -77.1721C414.346 -62.5143 421.119 -47.5389 427 -32.1987L424.429 -30.9047C416.717 -43.0098 409.685 -55.4912 403.147 -68.2433C396.186 -52.2326 388.52 -36.5161 380.455 -21.0348C388.203 -8.18865 395.657 4.84574 402.63 18.1389C407.596 7.19852 412.949 -3.56544 418.759 -14.1059L421.401 -12.9648C417.175 0.398991 412.303 13.5392 406.938 26.4678C414.346 41.1138 421.119 56.0775 427 71.4293L424.429 72.7351C416.717 60.6301 409.673 48.1368 403.147 35.3848C395.798 52.2777 387.675 68.8413 379.141 85.146C366.322 71.0058 353.855 56.4421 342.363 41.2079C332.397 54.854 321.585 67.8414 309.576 79.8288L308.297 81.0169C297.098 68.3119 287.296 54.6658 278.058 40.6785C267.997 56.1716 256.928 71.0294 244.825 85.1578C235.692 68.9236 226.677 52.6189 218.542 35.8906C211.569 48.231 204.091 60.289 195.803 71.8881L193.291 70.4882C199.501 55.6893 206.732 41.4432 214.562 27.5383C209.162 15.8685 204.232 3.97521 200.029 -8.25923ZM245.482 -120.487C238.275 -105.452 230.95 -90.477 223.014 -75.8428C231.079 -59.0792 238.192 -41.8569 245.142 -24.564C252.725 -41.4452 261.975 -57.2558 271.695 -72.7724C262.093 -88.1243 252.96 -103.794 245.482 -120.487ZM307.992 -116.887C300.866 -101.712 292.966 -86.9949 284.267 -72.7842C293.154 -58.3381 301.207 -43.3627 308.449 -27.9167C316.209 -43.3862 325.295 -58.044 335.273 -72.0901C325.107 -86.3362 315.868 -101.194 307.992 -116.887ZM398.792 -76.8898C391.725 -91.2417 385.245 -105.876 379.094 -120.628C369.785 -104.041 359.983 -87.689 349.207 -72.0548C359.76 -56.7029 369.374 -40.6452 378.507 -24.3875C384.67 -42.1039 391.314 -59.691 398.792 -76.8898ZM378.507 79.2523C384.67 61.5359 391.314 43.9489 398.792 26.7501C391.725 12.4099 385.245 -2.23612 379.094 -16.988C369.785 -0.412715 359.983 15.9391 349.207 31.5733C359.76 46.9252 369.374 62.9829 378.507 79.2523ZM308.449 75.7114C316.209 60.2537 325.295 45.5958 335.273 31.538C325.107 17.2919 315.868 2.43414 307.992 -13.2589C300.866 1.9283 292.966 16.6449 284.256 30.8557C293.154 45.29 301.207 60.2654 308.449 75.7114ZM307.839 -18.5644L309.118 -17.3645C321.303 -5.18886 332.267 8.01023 342.351 21.8681C353.339 7.25734 365.23 -6.74169 377.474 -20.3407C365.242 -33.9045 353.362 -47.8565 342.363 -62.4202C332.397 -48.7858 321.585 -35.7985 309.576 -23.8111L308.297 -22.6112C297.098 -35.3162 287.296 -48.9741 278.058 -62.9495C268.561 -48.327 258.172 -34.281 246.856 -20.8584C258.172 -7.49459 268.549 6.49268 278.058 21.0681C287.167 7.33968 296.828 -6.08292 307.839 -18.5644ZM245.142 79.0524C252.725 62.1947 261.975 46.384 271.695 30.8674C262.093 15.5038 252.972 -0.153909 245.482 -16.8586C238.275 -1.82438 230.95 13.151 223.014 27.7853C231.067 44.5371 238.192 61.7594 245.142 79.0524Z" fill="#E5D5C5"/>
<path d="M374.399 42.6904C366.969 42.6904 360.946 36.6545 360.946 29.2089C360.946 21.7634 366.969 15.7275 374.399 15.7275C381.829 15.7275 387.852 21.7634 387.852 29.2089C387.852 36.6545 381.829 42.6904 374.399 42.6904Z" fill="#E5D5C5"/>
<path d="M310.139 42.6904C302.709 42.6904 296.686 36.6545 296.686 29.2089C296.686 21.7634 302.709 15.7275 310.139 15.7275C317.569 15.7275 323.592 21.7634 323.592 29.2089C323.592 36.6545 317.569 42.6904 310.139 42.6904Z" fill="#E5D5C5"/>
<path d="M244.414 42.6904C236.985 42.6904 230.962 36.6545 230.962 29.2089C230.962 21.7634 236.985 15.7275 244.414 15.7275C251.844 15.7275 257.867 21.7634 257.867 29.2089C257.867 36.6545 251.844 42.6904 244.414 42.6904Z" fill="#E5D5C5"/>
</g>
</g>
<defs>
<clipPath id="clip0_737_187">
<path d="M0 16C0 7.16344 7.16344 0 16 0H404C412.837 0 420 7.16345 420 16V224C420 232.837 412.837 240 404 240H16C7.16344 240 0 232.837 0 224V16Z" fill="white"/>
</clipPath>
</defs>
</svg>
