<svg width="1512" height="889" viewBox="0 0 1512 889" fill="none" xmlns="http://www.w3.org/2000/svg">
<g clip-path="url(#clip0_724_444)">
<rect width="1512" height="889" fill="#E3DDD7"/>
<g opacity="0.1">
<path d="M139.133 617.431C164.152 617.431 184.434 597.149 184.434 572.129C184.434 547.11 164.152 526.828 139.133 526.828C114.114 526.828 93.832 547.11 93.832 572.129C93.832 597.149 114.114 617.431 139.133 617.431Z" fill="#D1B397"/>
<path d="M355.52 617.431C380.539 617.431 400.821 597.149 400.821 572.129C400.821 547.11 380.539 526.828 355.52 526.828C330.501 526.828 310.219 547.11 310.219 572.129C310.219 597.149 330.501 617.431 355.52 617.431Z" fill="#D1B397"/>
<path d="M576.848 617.431C601.867 617.431 622.149 597.149 622.149 572.129C622.149 547.11 601.867 526.828 576.848 526.828C551.829 526.828 531.547 547.11 531.547 572.129C531.547 597.149 551.829 617.431 576.848 617.431Z" fill="#D1B397"/>
<path d="M726.31 794.445L717.574 790.255C697.453 822.195 679.23 855.044 662.271 888.526C635.707 843.027 607.444 798.477 578.784 754.204C608.432 701.629 637.565 648.738 663.971 594.582C687.452 636.049 712.632 676.567 740.541 715.543L749 710.8C728.089 661.071 703.738 613.201 677.372 566.476C695.556 527.302 712.158 487.337 726.31 446.226L717.574 442.036C697.453 473.976 679.23 506.826 662.271 540.308C634.126 492.081 604.004 444.961 573.646 398C533.602 444.724 496.958 493.702 463.555 544.774C432.88 498.603 400.347 453.539 363.268 411.598L358.959 415.591C317.927 456.504 281.006 500.857 247.05 547.462C207.994 495.639 165.579 446.147 121.898 398.04C94.7017 442.866 68.4934 488.405 44.064 534.892C27.3428 498.129 9.31723 461.959 -10.25 426.58L-19.1443 430.414C-4.91352 475.32 11.4914 519.436 29.5565 562.879C4.61318 612.133 -18.1955 662.455 -38 714.002L-29.343 718.35C-3.37186 677.674 20.3065 635.733 42.3247 592.882C65.7659 646.682 91.5789 699.494 118.736 751.516C92.6462 794.682 67.5447 838.481 44.064 883.15C27.3428 846.387 9.31723 810.217 -10.25 774.799L-19.1443 778.633C-4.91352 823.539 11.4914 867.694 29.5565 911.137C4.61318 960.352 -18.1955 1010.63 -38 1062.22L-29.343 1066.61C-3.37186 1025.93 20.3461 983.951 42.3247 941.101C67.0704 997.866 94.425 1053.52 123.163 1108.31C166.33 1060.8 208.311 1011.86 247.01 960.668C280.571 1006.52 316.978 1050.16 357.417 1090.44L361.726 1094.44C399.437 1051.74 432.445 1005.89 463.555 958.889C497.432 1010.95 534.709 1060.88 575.464 1108.35C606.218 1053.8 636.577 999.012 663.971 942.801C687.452 984.267 712.632 1024.79 740.541 1063.76L749 1059.06C728.089 1009.33 703.738 961.459 677.372 914.734C695.556 875.521 712.158 835.556 726.31 794.445ZM573.25 417.33C597.522 467.849 622.188 518.171 648.91 567.346C621.753 623.676 597.798 681.548 574.397 739.657C548.86 682.931 517.711 629.803 484.98 577.663C517.316 526.077 548.07 473.423 573.25 417.33ZM362.754 429.426C386.748 480.42 413.352 529.872 442.644 577.624C412.719 626.166 385.602 676.488 361.212 728.391C335.083 676.409 304.487 627.155 270.886 579.956C305.119 532.085 336.229 482.159 362.754 429.426ZM56.9903 563.828C80.7872 515.601 102.608 466.426 123.321 416.856C154.669 472.593 187.676 527.539 223.964 580.075C188.427 631.661 156.052 685.619 125.298 740.25C104.545 680.718 82.1708 621.62 56.9903 563.828ZM125.298 1088.51C104.545 1028.98 82.1708 969.878 56.9903 912.086C80.7872 863.899 102.608 814.684 123.321 765.114C154.669 820.811 187.676 875.758 223.964 928.293C188.427 979.88 156.052 1033.84 125.298 1088.51ZM361.212 1076.61C335.083 1024.67 304.487 975.413 270.886 928.174C305.119 880.304 336.229 830.378 362.754 777.645C386.748 828.678 413.352 878.13 442.683 925.882C412.719 974.385 385.602 1024.71 361.212 1076.61ZM363.268 759.817L358.959 763.849C317.927 804.762 281.006 849.115 247.05 895.681C210.05 846.585 170.006 799.544 128.776 753.848C169.967 708.27 209.971 661.387 247.01 612.45C280.571 658.265 316.978 701.906 357.417 742.187L361.726 746.219C399.437 703.526 432.445 657.632 463.555 610.671C495.535 659.806 530.518 707.005 568.625 752.108C530.518 797.014 495.574 844.015 463.555 892.993C432.88 846.862 400.347 801.758 363.268 759.817ZM574.397 1087.84C548.86 1031.19 517.711 978.061 484.98 925.921C517.316 874.295 548.03 821.681 573.25 765.549C597.522 816.068 622.188 866.389 648.91 915.564C621.793 971.855 597.798 1029.73 574.397 1087.84Z" fill="#D1B397"/>
<path d="M139.133 965.649C164.152 965.649 184.434 945.367 184.434 920.348C184.434 895.329 164.152 875.047 139.133 875.047C114.114 875.047 93.832 895.329 93.832 920.348C93.832 945.367 114.114 965.649 139.133 965.649Z" fill="#D1B397"/>
<path d="M229.737 791.519C254.756 791.519 275.038 771.237 275.038 746.218C275.038 721.199 254.756 700.917 229.737 700.917C204.718 700.917 184.436 721.199 184.436 746.218C184.436 771.237 204.718 791.519 229.737 791.519Z" fill="#D1B397"/>
<path d="M355.52 965.649C380.539 965.649 400.821 945.367 400.821 920.348C400.821 895.329 380.539 875.047 355.52 875.047C330.501 875.047 310.219 895.329 310.219 920.348C310.219 945.367 330.501 965.649 355.52 965.649Z" fill="#D1B397"/>
<path d="M446.122 805.118C471.141 805.118 491.423 784.836 491.423 759.817C491.423 734.798 471.141 714.516 446.122 714.516C421.102 714.516 400.82 734.798 400.82 759.817C400.82 784.836 421.102 805.118 446.122 805.118Z" fill="#D1B397"/>
<path d="M576.848 965.649C601.867 965.649 622.149 945.367 622.149 920.348C622.149 895.329 601.867 875.047 576.848 875.047C551.829 875.047 531.547 895.329 531.547 920.348C531.547 945.367 551.829 965.649 576.848 965.649Z" fill="#D1B397"/>
<path d="M1348.91 617.431C1321.92 617.431 1300.04 597.149 1300.04 572.129C1300.04 547.11 1321.92 526.828 1348.91 526.828C1375.9 526.828 1397.78 547.11 1397.78 572.129C1397.78 597.149 1375.9 617.431 1348.91 617.431Z" fill="#D1B397"/>
<path d="M1115.48 617.431C1088.49 617.431 1066.61 597.149 1066.61 572.129C1066.61 547.11 1088.49 526.828 1115.48 526.828C1142.47 526.828 1164.35 547.11 1164.35 572.129C1164.35 597.149 1142.47 617.431 1115.48 617.431Z" fill="#D1B397"/>
<path d="M876.714 617.431C849.724 617.431 827.844 597.149 827.844 572.129C827.844 547.11 849.724 526.828 876.714 526.828C903.704 526.828 925.584 547.11 925.584 572.129C925.584 597.149 903.704 617.431 876.714 617.431Z" fill="#D1B397"/>
<path d="M715.478 794.445L724.902 790.255C746.608 822.195 766.267 855.044 784.561 888.526C813.218 843.027 843.708 798.477 874.625 754.204C842.642 701.629 811.213 648.738 782.727 594.582C757.397 636.049 730.233 676.567 700.126 715.543L691 710.8C713.559 661.071 739.827 613.201 768.271 566.476C748.655 527.302 730.744 487.337 715.478 446.226L724.902 442.036C746.608 473.976 766.267 506.826 784.561 540.308C814.924 492.081 847.418 444.961 880.169 398C923.367 444.724 962.898 493.702 998.933 544.774C1032.02 498.603 1067.12 453.539 1107.12 411.598L1111.77 415.591C1156.03 456.504 1195.86 500.857 1232.49 547.462C1274.63 495.639 1320.38 446.147 1367.5 398.04C1396.84 442.866 1425.12 488.405 1451.47 534.892C1469.51 498.129 1488.96 461.959 1510.06 426.58L1519.66 430.414C1504.31 475.32 1486.61 519.436 1467.12 562.879C1494.03 612.133 1518.64 662.455 1540 714.002L1530.66 718.35C1502.64 677.674 1477.1 635.733 1453.35 592.882C1428.06 646.682 1400.21 699.494 1370.92 751.516C1399.06 794.682 1426.14 838.481 1451.47 883.15C1469.51 846.387 1488.96 810.217 1510.06 774.799L1519.66 778.633C1504.31 823.539 1486.61 867.694 1467.12 911.137C1494.03 960.352 1518.64 1010.63 1540 1062.22L1530.66 1066.61C1502.64 1025.93 1477.06 983.951 1453.35 941.101C1426.65 997.866 1397.14 1053.52 1366.14 1108.31C1319.57 1060.8 1274.29 1011.86 1232.54 960.668C1196.33 1006.52 1157.06 1050.16 1113.43 1090.44L1108.78 1094.44C1068.1 1051.74 1032.49 1005.89 998.933 958.889C962.387 1010.95 922.173 1060.88 878.207 1108.35C845.03 1053.8 812.28 999.012 782.727 942.801C757.397 984.267 730.233 1024.79 700.126 1063.76L691 1059.06C713.559 1009.33 739.827 961.459 768.271 914.734C748.655 875.521 730.744 835.556 715.478 794.445ZM880.595 417.33C854.412 467.849 827.802 518.171 798.975 567.346C828.271 623.676 854.113 681.548 879.359 739.657C906.907 682.931 940.51 629.803 975.819 577.663C940.937 526.077 907.76 473.423 880.595 417.33ZM1107.67 429.426C1081.79 480.42 1053.09 529.872 1021.49 577.624C1053.77 626.166 1083.03 676.488 1109.34 728.391C1137.53 676.409 1170.53 627.155 1206.78 579.956C1169.85 532.085 1136.29 482.159 1107.67 429.426ZM1437.53 563.828C1411.85 515.601 1388.32 466.426 1365.97 416.856C1332.15 472.593 1296.55 527.539 1257.4 580.075C1295.74 631.661 1330.66 685.619 1363.84 740.25C1386.23 680.718 1410.36 621.62 1437.53 563.828ZM1363.84 1088.51C1386.23 1028.98 1410.36 969.878 1437.53 912.086C1411.85 863.899 1388.32 814.684 1365.97 765.114C1332.15 820.811 1296.55 875.758 1257.4 928.293C1295.74 979.88 1330.66 1033.84 1363.84 1088.51ZM1109.34 1076.61C1137.53 1024.67 1170.53 975.413 1206.78 928.174C1169.85 880.304 1136.29 830.378 1107.67 777.645C1081.79 828.678 1053.09 878.13 1021.45 925.882C1053.77 974.385 1083.03 1024.71 1109.34 1076.61ZM1107.12 759.817L1111.77 763.849C1156.03 804.762 1195.86 849.115 1232.49 895.681C1272.41 846.585 1315.61 799.544 1360.08 753.848C1315.65 708.27 1272.49 661.387 1232.54 612.45C1196.33 658.265 1157.06 701.906 1113.43 742.187L1108.78 746.219C1068.1 703.526 1032.49 657.632 998.933 610.671C964.434 659.806 926.694 707.005 885.585 752.108C926.694 797.014 964.391 844.015 998.933 892.993C1032.02 846.862 1067.12 801.758 1107.12 759.817ZM879.359 1087.84C906.907 1031.19 940.51 978.061 975.819 925.921C940.937 874.295 907.802 821.681 880.595 765.549C854.412 816.068 827.802 866.389 798.975 915.564C828.228 971.855 854.113 1029.73 879.359 1087.84Z" fill="#D1B397"/>
<path d="M1348.91 965.649C1321.92 965.649 1300.04 945.367 1300.04 920.348C1300.04 895.329 1321.92 875.047 1348.91 875.047C1375.9 875.047 1397.78 895.329 1397.78 920.348C1397.78 945.367 1375.9 965.649 1348.91 965.649Z" fill="#D1B397"/>
<path d="M1251.17 791.519C1224.18 791.519 1202.3 771.237 1202.3 746.218C1202.3 721.199 1224.18 700.917 1251.17 700.917C1278.16 700.917 1300.04 721.199 1300.04 746.218C1300.04 771.237 1278.16 791.519 1251.17 791.519Z" fill="#D1B397"/>
<path d="M1115.48 965.649C1088.49 965.649 1066.61 945.367 1066.61 920.348C1066.61 895.329 1088.49 875.047 1115.48 875.047C1142.47 875.047 1164.35 895.329 1164.35 920.348C1164.35 945.367 1142.47 965.649 1115.48 965.649Z" fill="#D1B397"/>
<path d="M1017.74 805.118C990.749 805.118 968.869 784.836 968.869 759.817C968.869 734.798 990.749 714.516 1017.74 714.516C1044.73 714.516 1066.61 734.798 1066.61 759.817C1066.61 784.836 1044.73 805.118 1017.74 805.118Z" fill="#D1B397"/>
<path d="M876.714 965.649C849.724 965.649 827.844 945.367 827.844 920.348C827.844 895.329 849.724 875.047 876.714 875.047C903.704 875.047 925.584 895.329 925.584 920.348C925.584 945.367 903.704 965.649 876.714 965.649Z" fill="#D1B397"/>
</g>
<g style="mix-blend-mode:soft-light">
<path d="M1517.67 83.0875C1517.35 83.7464 1516.96 84.3535 1516.6 84.9838C1510.54 95.5685 1503.4 105.412 1495.23 114.54C1494.72 115.066 1494.22 115.588 1493.76 116.142C1491.13 119.009 1488.38 121.798 1485.51 124.541C1508.97 117.4 1526.3 92.6289 1525.1 68.1836C1522.84 73.3475 1520.38 78.3107 1517.68 83.0895L1517.67 83.0875ZM1511.35 70.9864C1510.46 71.5045 1509.57 72.0205 1508.76 72.6558C1502.42 76.8113 1496.94 82.3853 1492.66 88.7469C1492.05 89.6417 1491.48 90.5616 1490.91 91.4843C1487.22 97.664 1484.65 104.447 1483.43 111.452C1483.29 112.408 1483.14 113.363 1483.03 114.344C1482.72 117.03 1482.64 119.775 1482.75 122.497C1483.85 119.951 1485.03 117.459 1486.28 115.023C1486.65 114.229 1487.04 113.397 1487.48 112.657C1490.45 106.841 1493.71 101.243 1497.29 95.8833C1497.71 95.2433 1498.16 94.5638 1498.61 93.9497C1502.6 88.0504 1506.99 82.4457 1511.76 77.0703C1512.39 76.3651 1513.03 75.6599 1513.67 74.9547C1516.41 71.9399 1519.32 69.0024 1522.3 66.114C1518.48 67.2571 1514.77 68.9328 1511.34 70.9871L1511.35 70.9864ZM1517.67 83.0875C1517.35 83.7464 1516.96 84.3535 1516.6 84.9838C1510.54 95.5685 1503.4 105.412 1495.23 114.54C1494.72 115.066 1494.22 115.588 1493.76 116.142C1491.13 119.009 1488.38 121.798 1485.51 124.541C1508.97 117.4 1526.3 92.6289 1525.1 68.1836C1522.84 73.3475 1520.38 78.3107 1517.68 83.0895L1517.67 83.0875ZM1511.35 70.9864C1510.46 71.5045 1509.57 72.0205 1508.76 72.6558C1502.42 76.8113 1496.94 82.3853 1492.66 88.7469C1492.05 89.6417 1491.48 90.5616 1490.91 91.4843C1487.22 97.664 1484.65 104.447 1483.43 111.452C1483.29 112.408 1483.14 113.363 1483.03 114.344C1482.72 117.03 1482.64 119.775 1482.75 122.497C1483.85 119.951 1485.03 117.459 1486.28 115.023C1486.65 114.229 1487.04 113.397 1487.48 112.657C1490.45 106.841 1493.71 101.243 1497.29 95.8833C1497.71 95.2433 1498.16 94.5638 1498.61 93.9497C1502.6 88.0504 1506.99 82.4457 1511.76 77.0703C1512.39 76.3651 1513.03 75.6599 1513.67 74.9547C1516.41 71.9399 1519.32 69.0024 1522.3 66.114C1518.48 67.2571 1514.77 68.9328 1511.34 70.9871L1511.35 70.9864ZM1517.67 83.0875C1517.35 83.7464 1516.96 84.3535 1516.6 84.9838C1510.54 95.5685 1503.4 105.412 1495.23 114.54C1494.72 115.066 1494.22 115.588 1493.76 116.142C1491.13 119.009 1488.38 121.798 1485.51 124.541C1508.97 117.4 1526.3 92.6289 1525.1 68.1836C1522.84 73.3475 1520.38 78.3107 1517.68 83.0895L1517.67 83.0875ZM1511.35 70.9864C1510.46 71.5045 1509.57 72.0205 1508.76 72.6558C1502.42 76.8113 1496.94 82.3853 1492.66 88.7469C1492.05 89.6417 1491.48 90.5616 1490.91 91.4843C1487.22 97.664 1484.65 104.447 1483.43 111.452C1483.29 112.408 1483.14 113.363 1483.03 114.344C1482.72 117.03 1482.64 119.775 1482.75 122.497C1483.85 119.951 1485.03 117.459 1486.28 115.023C1486.65 114.229 1487.04 113.397 1487.48 112.657C1490.45 106.841 1493.71 101.243 1497.29 95.8833C1497.71 95.2433 1498.16 94.5638 1498.61 93.9497C1502.6 88.0504 1506.99 82.4457 1511.76 77.0703C1512.39 76.3651 1513.03 75.6599 1513.67 74.9547C1516.41 71.9399 1519.32 69.0024 1522.3 66.114C1518.48 67.2571 1514.77 68.9328 1511.34 70.9871L1511.35 70.9864ZM1517.67 83.0875C1517.35 83.7464 1516.96 84.3535 1516.6 84.9838C1510.54 95.5685 1503.4 105.412 1495.23 114.54C1494.72 115.066 1494.22 115.588 1493.76 116.142C1491.13 119.009 1488.38 121.798 1485.51 124.541C1508.97 117.4 1526.3 92.6289 1525.1 68.1836C1522.84 73.3475 1520.38 78.3107 1517.68 83.0895L1517.67 83.0875ZM1511.35 70.9864C1510.46 71.5045 1509.57 72.0205 1508.76 72.6558C1502.42 76.8113 1496.94 82.3853 1492.66 88.7469C1492.05 89.6417 1491.48 90.5616 1490.91 91.4843C1487.22 97.664 1484.65 104.447 1483.43 111.452C1483.29 112.408 1483.14 113.363 1483.03 114.344C1482.72 117.03 1482.64 119.775 1482.75 122.497C1483.85 119.951 1485.03 117.459 1486.28 115.023C1486.65 114.229 1487.04 113.397 1487.48 112.657C1490.45 106.841 1493.71 101.243 1497.29 95.8833C1497.71 95.2433 1498.16 94.5638 1498.61 93.9497C1502.6 88.0504 1506.99 82.4457 1511.76 77.0703C1512.39 76.3651 1513.03 75.6599 1513.67 74.9547C1516.41 71.9399 1519.32 69.0024 1522.3 66.114C1518.48 67.2571 1514.77 68.9328 1511.34 70.9871L1511.35 70.9864ZM1517.67 83.0875C1517.35 83.7464 1516.96 84.3535 1516.6 84.9838C1510.54 95.5685 1503.4 105.412 1495.23 114.54C1494.72 115.066 1494.22 115.588 1493.76 116.142C1491.13 119.009 1488.38 121.798 1485.51 124.541C1508.97 117.4 1526.3 92.6289 1525.1 68.1836C1522.84 73.3475 1520.38 78.3107 1517.68 83.0895L1517.67 83.0875ZM1511.35 70.9864C1510.46 71.5045 1509.57 72.0205 1508.76 72.6558C1502.42 76.8113 1496.94 82.3853 1492.66 88.7469C1492.05 89.6417 1491.48 90.5616 1490.91 91.4843C1487.22 97.664 1484.65 104.447 1483.43 111.452C1483.29 112.408 1483.14 113.363 1483.03 114.344C1482.72 117.03 1482.64 119.775 1482.75 122.497C1483.85 119.951 1485.03 117.459 1486.28 115.023C1486.65 114.229 1487.04 113.397 1487.48 112.657C1490.45 106.841 1493.71 101.243 1497.29 95.8833C1497.71 95.2433 1498.16 94.5638 1498.61 93.9497C1502.6 88.0504 1506.99 82.4457 1511.76 77.0703C1512.39 76.3651 1513.03 75.6599 1513.67 74.9547C1516.41 71.9399 1519.32 69.0024 1522.3 66.114C1518.48 67.2571 1514.77 68.9328 1511.34 70.9871L1511.35 70.9864ZM1511.35 70.9864C1510.46 71.5045 1509.57 72.0205 1508.76 72.6558C1502.42 76.8113 1496.94 82.3853 1492.66 88.7469C1492.05 89.6417 1491.48 90.5616 1490.91 91.4843C1487.22 97.664 1484.65 104.447 1483.43 111.452C1483.29 112.408 1483.14 113.363 1483.03 114.344C1482.72 117.03 1482.64 119.775 1482.75 122.497C1483.85 119.951 1485.03 117.459 1486.28 115.023C1486.65 114.229 1487.04 113.397 1487.48 112.657C1490.45 106.841 1493.71 101.243 1497.29 95.8833C1497.71 95.2433 1498.16 94.5638 1498.61 93.9497C1502.6 88.0504 1506.99 82.4457 1511.76 77.0703C1512.39 76.3651 1513.03 75.6599 1513.67 74.9547C1516.41 71.9399 1519.32 69.0024 1522.3 66.114C1518.48 67.2571 1514.77 68.9328 1511.34 70.9871L1511.35 70.9864ZM1517.67 83.0875C1517.35 83.7464 1516.96 84.3535 1516.6 84.9838C1510.54 95.5685 1503.4 105.412 1495.23 114.54C1494.72 115.066 1494.22 115.588 1493.76 116.142C1491.13 119.009 1488.38 121.798 1485.51 124.541C1508.97 117.4 1526.3 92.6289 1525.1 68.1836C1522.84 73.3475 1520.38 78.3107 1517.68 83.0895L1517.67 83.0875ZM1511.35 70.9864C1510.46 71.5045 1509.57 72.0205 1508.76 72.6558C1502.42 76.8113 1496.94 82.3853 1492.66 88.7469C1492.05 89.6417 1491.48 90.5616 1490.91 91.4843C1487.22 97.664 1484.65 104.447 1483.43 111.452C1483.29 112.408 1483.14 113.363 1483.03 114.344C1482.72 117.03 1482.64 119.775 1482.75 122.497C1483.85 119.951 1485.03 117.459 1486.28 115.023C1486.65 114.229 1487.04 113.397 1487.48 112.657C1490.45 106.841 1493.71 101.243 1497.29 95.8833C1497.71 95.2433 1498.16 94.5638 1498.61 93.9497C1502.6 88.0504 1506.99 82.4457 1511.76 77.0703C1512.39 76.3651 1513.03 75.6599 1513.67 74.9547C1516.41 71.9399 1519.32 69.0024 1522.3 66.114C1518.48 67.2571 1514.77 68.9328 1511.34 70.9871L1511.35 70.9864ZM1517.67 83.0875C1517.35 83.7464 1516.96 84.3535 1516.6 84.9838C1510.54 95.5685 1503.4 105.412 1495.23 114.54C1494.72 115.066 1494.22 115.588 1493.76 116.142C1491.13 119.009 1488.38 121.798 1485.51 124.541C1508.97 117.4 1526.3 92.6289 1525.1 68.1836C1522.84 73.3475 1520.38 78.3107 1517.68 83.0895L1517.67 83.0875ZM1511.35 70.9864C1510.46 71.5045 1509.57 72.0205 1508.76 72.6558C1502.42 76.8113 1496.94 82.3853 1492.66 88.7469C1492.05 89.6417 1491.48 90.5616 1490.91 91.4843C1487.22 97.664 1484.65 104.447 1483.43 111.452C1483.29 112.408 1483.14 113.363 1483.03 114.344C1482.72 117.03 1482.64 119.775 1482.75 122.497C1483.85 119.951 1485.03 117.459 1486.28 115.023C1486.65 114.229 1487.04 113.397 1487.48 112.657C1490.45 106.841 1493.71 101.243 1497.29 95.8833C1497.71 95.2433 1498.16 94.5638 1498.61 93.9497C1502.6 88.0504 1506.99 82.4457 1511.76 77.0703C1512.39 76.3651 1513.03 75.6599 1513.67 74.9547C1516.41 71.9399 1519.32 69.0024 1522.3 66.114C1518.48 67.2571 1514.77 68.9328 1511.34 70.9871L1511.35 70.9864ZM1517.67 83.0875C1517.35 83.7464 1516.96 84.3535 1516.6 84.9838C1510.54 95.5685 1503.4 105.412 1495.23 114.54C1494.72 115.066 1494.22 115.588 1493.76 116.142C1491.13 119.009 1488.38 121.798 1485.51 124.541C1508.97 117.4 1526.3 92.6289 1525.1 68.1836C1522.84 73.3475 1520.38 78.3107 1517.68 83.0895L1517.67 83.0875ZM1511.35 70.9864C1510.46 71.5045 1509.57 72.0205 1508.76 72.6558C1502.42 76.8113 1496.94 82.3853 1492.66 88.7469C1492.05 89.6417 1491.48 90.5616 1490.91 91.4843C1487.22 97.664 1484.65 104.447 1483.43 111.452C1483.29 112.408 1483.14 113.363 1483.03 114.344C1482.72 117.03 1482.64 119.775 1482.75 122.497C1483.85 119.951 1485.03 117.459 1486.28 115.023C1486.65 114.229 1487.04 113.397 1487.48 112.657C1490.45 106.841 1493.71 101.243 1497.29 95.8833C1497.71 95.2433 1498.16 94.5638 1498.61 93.9497C1502.6 88.0504 1506.99 82.4457 1511.76 77.0703C1512.39 76.3651 1513.03 75.6599 1513.67 74.9547C1516.41 71.9399 1519.32 69.0024 1522.3 66.114C1518.48 67.2571 1514.77 68.9328 1511.34 70.9871L1511.35 70.9864ZM1517.67 83.0875C1517.35 83.7464 1516.96 84.3535 1516.6 84.9838C1510.54 95.5685 1503.4 105.412 1495.23 114.54C1494.72 115.066 1494.22 115.588 1493.76 116.142C1491.13 119.009 1488.38 121.798 1485.51 124.541C1508.97 117.4 1526.3 92.6289 1525.1 68.1836C1522.84 73.3475 1520.38 78.3107 1517.68 83.0895L1517.67 83.0875ZM1451.06 -22.7706C1411 0.762293 1380.89 42.2291 1371.37 87.7668C1371.08 88.9044 1372.84 89.4795 1373.33 88.4404C1378.64 78.192 1383.89 68.1771 1389.59 58.4499C1406.67 28.9523 1428.21 2.94476 1452.3 -21.1228C1453.15 -21.9566 1452.04 -23.3379 1451.06 -22.7726L1451.06 -22.7706ZM1560.09 83.2828L1560.03 83.2917L1559.26 83.2776L1559.03 83.9527C1549.68 116.654 1527.02 144.308 1497.78 161.412C1498.33 164.29 1498.94 167.096 1499.61 169.895C1500.59 169.493 1501.52 169.067 1502.49 168.665C1506.9 166.725 1511.22 164.379 1515.41 161.765C1518.62 169.529 1521.99 177.305 1525.65 184.906C1527.35 185.266 1529.04 185.626 1530.75 186.05C1526.67 178.092 1522.27 170.276 1517.69 162.619C1528.22 163.926 1538.86 164.989 1549.48 165.353C1548.73 163.339 1548.06 161.218 1547.43 159.125C1537.23 159.186 1527.03 159.854 1516.88 160.843C1526.15 154.773 1534.75 147.191 1542.19 138.752C1543.07 137.722 1543.97 136.655 1544.82 135.595C1545.61 134.672 1546.4 133.685 1547.12 132.708C1547.91 131.721 1548.69 130.675 1549.44 129.661C1554.31 122.954 1558.47 115.835 1561.68 108.571C1562.26 107.263 1562.8 105.927 1563.34 104.591C1563.52 104.049 1563.73 103.535 1563.88 103.031C1564.14 102.382 1564.4 101.732 1564.62 101.055C1566.27 96.273 1567.52 91.4848 1568.24 86.7453C1568.38 85.7266 1568.51 84.7086 1568.63 83.7275C1568.64 83.6292 1568.63 83.5664 1568.65 83.4682C1565.81 83.3734 1562.93 83.3161 1560.09 83.2848L1560.09 83.2828ZM1511.34 70.9891C1510.46 71.5071 1509.57 72.0232 1508.76 72.6585C1502.42 76.8139 1496.93 82.388 1492.66 88.7496C1492.05 89.6444 1491.48 90.5643 1490.91 91.487C1487.22 97.6666 1484.65 104.449 1483.43 111.455C1483.28 112.41 1483.14 113.366 1483.02 114.347C1482.71 117.033 1482.64 119.778 1482.75 122.499C1483.85 119.954 1485.03 117.462 1486.28 115.025C1486.64 114.231 1487.04 113.4 1487.47 112.659C1490.44 106.844 1493.71 101.246 1497.29 95.886C1497.71 95.246 1498.16 94.5665 1498.61 93.9524C1502.6 88.0531 1506.98 82.4484 1511.76 77.0729C1512.39 76.3677 1513.03 75.6626 1513.66 74.9574C1516.4 71.9426 1519.32 69.0051 1522.3 66.1167C1518.48 67.2598 1514.77 68.9354 1511.34 70.9897L1511.34 70.9891ZM1559.88 85.1495C1560.08 85.1846 1560.32 85.2455 1560.51 85.2806C1560.64 85.0375 1560.72 84.7038 1560.81 84.4328C1560.84 84.4587 1559.72 85.1403 1559.88 85.1495ZM1592.48 103.63C1589.88 98.8326 1587.15 94.1176 1584.16 89.5401C1583.14 89.3995 1582.15 89.226 1581.15 89.0506C1583.08 93.7864 1585.22 98.4596 1587.5 103.016C1579.88 102.179 1572.26 101.57 1564.62 101.058C1563 100.978 1561.37 100.832 1559.74 100.75C1560.36 103.395 1561 106.002 1561.67 108.577C1563.58 115.826 1565.86 122.957 1568.47 129.94C1562.14 129.62 1555.81 129.463 1549.44 129.664C1546.58 129.733 1543.68 129.871 1540.79 130.139L1540.87 131.094C1541.25 133.678 1541.66 136.224 1542.19 138.75C1543.53 145.633 1545.31 152.45 1547.42 159.123C1537.23 159.184 1527.03 159.852 1516.88 160.841C1516.3 160.862 1515.7 160.918 1515.09 160.978C1515.19 161.219 1515.33 161.49 1515.4 161.77C1518.61 169.534 1521.98 177.31 1525.65 184.911C1519.93 183.696 1514.21 182.642 1508.42 181.825C1508.74 182.677 1509.15 183.488 1509.5 184.304C1515.59 186.299 1521.74 188.06 1527.95 189.589C1530.95 195.68 1534.17 201.608 1537.6 207.41C1538.38 206.812 1539.13 206.187 1539.87 205.563C1537.78 200.594 1535.55 195.68 1533.13 190.852C1539.19 192.273 1545.3 193.495 1551.42 194.617C1552.23 193.82 1553.05 193.024 1553.79 192.174C1546.15 189.926 1538.47 187.809 1530.74 186.058C1526.67 178.1 1522.26 170.284 1517.68 162.627C1528.21 163.934 1538.86 164.997 1549.47 165.361C1552 172.906 1554.96 180.322 1558.08 187.681C1559.03 186.703 1559.97 185.661 1560.89 184.66C1559.45 178.209 1557.86 171.815 1555.99 165.492C1563.34 165.565 1570.63 165.258 1577.98 164.427C1578.81 163.467 1579.58 162.418 1580.36 161.372C1571.69 159.983 1562.9 159.289 1554.12 159.107L1554.08 159.081C1551.51 151.06 1548.48 143.203 1544.81 135.602C1544.28 134.362 1543.71 133.158 1543.09 131.964C1544.44 132.245 1545.77 132.5 1547.12 132.72C1554.94 134.205 1562.89 135.283 1570.78 135.98C1573.97 144.069 1577.61 151.933 1581.69 159.665C1582.37 158.822 1583.04 157.918 1583.68 157.052C1581.91 150.071 1579.67 143.193 1577.22 136.443C1584.01 136.888 1590.8 137.042 1597.62 136.837C1598.35 135.697 1599.11 134.525 1599.81 133.359C1591.54 131.877 1583.24 130.981 1574.94 130.375C1571.52 121.611 1567.86 112.947 1563.34 104.603C1563 104.01 1562.64 103.356 1562.3 102.762C1562.83 102.877 1563.32 102.963 1563.88 103.041C1572.5 104.729 1581.12 106.253 1589.84 107.506C1593.68 114.953 1597.94 122.211 1602.27 129.356C1602.78 128.446 1603.33 127.56 1603.84 126.647C1601.01 120.402 1598.07 114.238 1594.89 108.175C1600.9 108.929 1606.83 109.467 1612.89 109.698C1613.25 108.904 1613.58 108.084 1613.9 107.199C1606.81 105.64 1599.66 104.476 1592.49 103.639L1592.48 103.63ZM1549.44 129.664C1546.58 129.733 1543.68 129.871 1540.79 130.139L1540.87 131.094C1541.25 133.678 1541.66 136.224 1542.19 138.75C1543.53 145.633 1545.31 152.45 1547.42 159.123C1549.64 159.086 1551.83 159.085 1554.08 159.072C1551.51 151.051 1548.48 143.194 1544.81 135.593C1544.27 134.352 1543.71 133.149 1543.08 131.955C1544.44 132.236 1545.77 132.491 1547.12 132.711C1554.94 134.195 1562.89 135.274 1570.78 135.971C1569.94 134.001 1569.19 131.989 1568.47 129.94C1562.14 129.62 1555.81 129.463 1549.44 129.664ZM1516.88 160.841C1516.3 160.862 1515.7 160.918 1515.09 160.978C1515.19 161.219 1515.33 161.49 1515.4 161.77C1518.61 169.534 1521.98 177.31 1525.65 184.911C1527.35 185.271 1529.04 185.632 1530.74 186.055C1526.67 178.097 1522.26 170.281 1517.69 162.624C1528.21 163.932 1538.86 164.995 1549.47 165.359C1548.72 163.345 1548.05 161.224 1547.42 159.13C1537.23 159.191 1527.03 159.86 1516.87 160.849L1516.88 160.841ZM1549.44 129.664C1546.58 129.733 1543.68 129.871 1540.79 130.139L1540.87 131.094C1541.25 133.678 1541.66 136.224 1542.19 138.75C1543.53 145.633 1545.31 152.45 1547.42 159.123C1549.64 159.086 1551.83 159.085 1554.08 159.072C1551.51 151.051 1548.48 143.194 1544.81 135.593C1544.27 134.352 1543.71 133.149 1543.08 131.955C1544.44 132.236 1545.77 132.491 1547.12 132.711C1554.94 134.195 1562.89 135.274 1570.78 135.971C1569.94 134.001 1569.19 131.989 1568.47 129.94C1562.14 129.62 1555.81 129.463 1549.44 129.664ZM1516.88 160.841C1516.3 160.862 1515.7 160.918 1515.09 160.978C1515.19 161.219 1515.33 161.49 1515.4 161.77C1518.61 169.534 1521.98 177.31 1525.65 184.911C1527.35 185.271 1529.04 185.632 1530.74 186.055C1526.67 178.097 1522.26 170.281 1517.69 162.624C1528.21 163.932 1538.86 164.995 1549.47 165.359C1548.72 163.345 1548.05 161.224 1547.42 159.13C1537.23 159.191 1527.03 159.86 1516.87 160.849L1516.88 160.841ZM1549.44 129.664C1546.58 129.733 1543.68 129.871 1540.79 130.139L1540.87 131.094C1541.25 133.678 1541.66 136.224 1542.19 138.75C1543.53 145.633 1545.31 152.45 1547.42 159.123C1549.64 159.086 1551.83 159.085 1554.08 159.072C1551.51 151.051 1548.48 143.194 1544.81 135.593C1544.27 134.352 1543.71 133.149 1543.08 131.955C1544.44 132.236 1545.77 132.491 1547.12 132.711C1554.94 134.195 1562.89 135.274 1570.78 135.971C1569.94 134.001 1569.19 131.989 1568.47 129.94C1562.14 129.62 1555.81 129.463 1549.44 129.664ZM1516.88 160.841C1516.3 160.862 1515.7 160.918 1515.09 160.978C1515.19 161.219 1515.33 161.49 1515.4 161.77C1518.61 169.534 1521.98 177.31 1525.65 184.911C1527.35 185.271 1529.04 185.632 1530.74 186.055C1526.67 178.097 1522.26 170.281 1517.69 162.624C1528.21 163.932 1538.86 164.995 1549.47 165.359C1548.72 163.345 1548.05 161.224 1547.42 159.13C1537.23 159.191 1527.03 159.86 1516.87 160.849L1516.88 160.841ZM1549.44 129.664C1546.58 129.733 1543.68 129.871 1540.79 130.139L1540.87 131.094C1541.25 133.678 1541.66 136.224 1542.19 138.75C1543.53 145.633 1545.31 152.45 1547.42 159.123C1549.64 159.086 1551.83 159.085 1554.08 159.072C1551.51 151.051 1548.48 143.194 1544.81 135.593C1544.27 134.352 1543.71 133.149 1543.08 131.955C1544.44 132.236 1545.77 132.491 1547.12 132.711C1554.94 134.195 1562.89 135.274 1570.78 135.971C1569.94 134.001 1569.19 131.989 1568.47 129.94C1562.14 129.62 1555.81 129.463 1549.44 129.664ZM1516.88 160.841C1516.3 160.862 1515.7 160.918 1515.09 160.978C1515.19 161.219 1515.33 161.49 1515.4 161.77C1518.61 169.534 1521.98 177.31 1525.65 184.911C1527.35 185.271 1529.04 185.632 1530.74 186.055C1526.67 178.097 1522.26 170.281 1517.69 162.624C1528.21 163.932 1538.86 164.995 1549.47 165.359C1548.72 163.345 1548.05 161.224 1547.42 159.13C1537.23 159.191 1527.03 159.86 1516.87 160.849L1516.88 160.841ZM1549.44 129.664C1546.58 129.733 1543.68 129.871 1540.79 130.139L1540.87 131.094C1541.25 133.678 1541.66 136.224 1542.19 138.75C1543.53 145.633 1545.31 152.45 1547.42 159.123C1549.64 159.086 1551.83 159.085 1554.08 159.072C1551.51 151.051 1548.48 143.194 1544.81 135.593C1544.27 134.352 1543.71 133.149 1543.08 131.955C1544.44 132.236 1545.77 132.491 1547.12 132.711C1554.94 134.195 1562.89 135.274 1570.78 135.971C1569.94 134.001 1569.19 131.989 1568.47 129.94C1562.14 129.62 1555.81 129.463 1549.44 129.664ZM1516.88 160.841C1516.3 160.862 1515.7 160.918 1515.09 160.978C1515.19 161.219 1515.33 161.49 1515.4 161.77C1518.61 169.534 1521.98 177.31 1525.65 184.911C1527.35 185.271 1529.04 185.632 1530.74 186.055C1526.67 178.097 1522.26 170.281 1517.69 162.624C1528.21 163.932 1538.86 164.995 1549.47 165.359C1548.72 163.345 1548.05 161.224 1547.42 159.13C1537.23 159.191 1527.03 159.86 1516.87 160.849L1516.88 160.841ZM1543.08 131.955C1543.71 133.149 1544.28 134.354 1544.81 135.593C1545.61 134.67 1546.4 133.683 1547.12 132.706C1545.77 132.489 1544.45 132.233 1543.08 131.95L1543.08 131.955ZM1562.29 102.753C1562.64 103.346 1562.99 104 1563.34 104.594C1563.52 104.052 1563.73 103.538 1563.88 103.033C1563.32 102.956 1562.83 102.867 1562.3 102.755L1562.29 102.753ZM1562.29 102.753C1562.64 103.346 1562.99 104 1563.34 104.594C1563.52 104.052 1563.73 103.538 1563.88 103.033C1563.32 102.956 1562.83 102.867 1562.3 102.755L1562.29 102.753ZM1543.08 131.955C1543.71 133.149 1544.28 134.354 1544.81 135.593C1545.61 134.67 1546.4 133.683 1547.12 132.706C1545.77 132.489 1544.45 132.233 1543.08 131.95L1543.08 131.955ZM1562.29 102.753C1562.64 103.346 1562.99 104 1563.34 104.594C1563.52 104.052 1563.73 103.538 1563.88 103.033C1563.32 102.956 1562.83 102.867 1562.3 102.755L1562.29 102.753ZM1543.08 131.955C1543.71 133.149 1544.28 134.354 1544.81 135.593C1545.61 134.67 1546.4 133.683 1547.12 132.706C1545.77 132.489 1544.45 132.233 1543.08 131.95L1543.08 131.955ZM1562.29 102.753C1562.64 103.346 1562.99 104 1563.34 104.594C1563.52 104.052 1563.73 103.538 1563.88 103.033C1563.32 102.956 1562.83 102.867 1562.3 102.755L1562.29 102.753ZM1543.08 131.955C1543.71 133.149 1544.28 134.354 1544.81 135.593C1545.61 134.67 1546.4 133.683 1547.12 132.706C1545.77 132.489 1544.45 132.233 1543.08 131.95L1543.08 131.955ZM1562.29 102.753C1562.64 103.346 1562.99 104 1563.34 104.594C1563.52 104.052 1563.73 103.538 1563.88 103.033C1563.32 102.956 1562.83 102.867 1562.3 102.755L1562.29 102.753ZM1543.08 131.955C1543.71 133.149 1544.28 134.354 1544.81 135.593C1545.61 134.67 1546.4 133.683 1547.12 132.706C1545.77 132.489 1544.45 132.233 1543.08 131.95L1543.08 131.955ZM1614.48 85.4107C1599.22 84.5144 1583.95 83.7791 1568.64 83.4669C1565.8 83.3721 1562.93 83.3148 1560.09 83.2835L1560.03 83.2924L1559.25 83.2783L1559.03 83.9533C1549.67 116.654 1527.01 144.309 1497.78 161.413C1498.33 164.291 1498.94 167.097 1499.61 169.896C1502.95 184.208 1507.6 197.586 1513.34 211.156L1514.85 214.572C1516.49 219.833 1522.85 223.429 1527.88 222.622C1556.59 221.112 1637.67 118.608 1623.94 91.7029C1622.19 88.1633 1618.17 85.7972 1614.48 85.408L1614.48 85.4107ZM1581.16 89.0526C1583.08 93.7884 1585.22 98.4616 1587.5 103.018C1579.88 102.181 1572.26 101.572 1564.62 101.06C1566.26 96.2784 1567.52 91.4902 1568.23 86.7507C1572.53 87.5303 1576.87 88.3384 1581.16 89.0546L1581.16 89.0526ZM1517.69 162.621C1528.21 163.929 1538.86 164.992 1549.47 165.356C1552.01 172.9 1554.97 180.316 1558.09 187.676C1556.67 189.205 1555.28 190.698 1553.8 192.173C1546.16 189.925 1538.47 187.808 1530.75 186.057C1526.67 178.099 1522.27 170.283 1517.69 162.626L1517.69 162.621ZM1516.88 160.843C1526.15 154.773 1534.75 147.191 1542.19 138.752C1543.53 145.635 1545.31 152.452 1547.43 159.125C1537.23 159.186 1527.03 159.854 1516.88 160.843ZM1554.08 159.074C1551.51 151.053 1548.48 143.196 1544.82 135.595C1545.61 134.672 1546.4 133.685 1547.12 132.708C1554.94 134.193 1562.89 135.271 1570.78 135.968C1573.97 144.057 1577.61 151.921 1581.69 159.653C1581.26 160.232 1580.83 160.812 1580.36 161.362C1571.7 159.973 1562.9 159.279 1554.12 159.097L1554.08 159.071L1554.08 159.074ZM1549.44 129.666C1554.31 122.958 1558.47 115.84 1561.68 108.576C1563.59 115.825 1565.86 122.956 1568.48 129.939C1562.15 129.619 1555.82 129.462 1549.44 129.663L1549.44 129.666ZM1563.34 104.598C1563.52 104.057 1563.73 103.542 1563.88 103.038C1572.5 104.726 1581.13 106.25 1589.84 107.504C1593.68 114.95 1597.94 122.208 1602.28 129.354C1601.47 130.662 1600.64 132.009 1599.81 133.355C1591.54 131.872 1583.24 130.976 1574.94 130.37C1571.52 121.606 1567.86 112.942 1563.34 104.598ZM1502.49 168.672C1506.9 166.733 1511.22 164.387 1515.41 161.772C1518.61 169.536 1521.99 177.312 1525.65 184.913C1519.94 183.698 1514.21 182.644 1508.43 181.827C1506.42 177.359 1504.44 172.922 1502.49 168.672ZM1524.08 212.569C1518.66 204.229 1513.96 194.238 1509.5 184.308C1515.59 186.303 1521.74 188.065 1527.95 189.593C1530.95 195.685 1534.17 201.613 1537.6 207.415C1534.29 209.997 1530.78 212.222 1526.92 213.113C1525.44 213.299 1524.7 213.088 1524.07 212.57L1524.08 212.569ZM1542.8 203.137C1541.82 203.926 1540.88 204.74 1539.88 205.562C1537.79 200.593 1535.55 195.679 1533.13 190.852C1539.2 192.272 1545.3 193.494 1551.42 194.616C1548.6 197.511 1545.7 200.353 1542.8 203.135L1542.8 203.137ZM1560.89 184.656C1559.46 178.206 1557.87 171.811 1556 165.489C1563.35 165.562 1570.64 165.255 1577.99 164.423C1572.58 171.404 1566.83 178.178 1560.9 184.653L1560.89 184.656ZM1583.69 157.049C1581.91 150.068 1579.67 143.189 1577.23 136.44C1584.02 136.884 1590.8 137.038 1597.63 136.833C1593.24 143.725 1588.57 150.468 1583.69 157.049ZM1611.57 112.755C1609.11 117.433 1606.58 122.055 1603.84 126.644C1601.02 120.398 1598.08 114.235 1594.9 108.171C1600.9 108.926 1606.84 109.464 1612.89 109.695C1612.45 110.823 1611.96 111.862 1611.57 112.755ZM1613.91 107.196C1606.82 105.637 1599.67 104.473 1592.49 103.636C1589.89 98.8386 1587.16 94.1235 1584.16 89.546C1593.97 91.2181 1603.78 92.7266 1613.57 94.2091C1617.55 95.874 1615.99 101.898 1613.91 107.196ZM1543.09 131.961C1543.72 133.155 1544.28 134.36 1544.82 135.599C1545.62 134.676 1546.41 133.689 1547.13 132.712C1545.78 132.495 1544.45 132.239 1543.09 131.956L1543.09 131.961ZM1562.3 102.759C1562.65 103.352 1563 104.006 1563.35 104.6C1563.53 104.058 1563.74 103.544 1563.89 103.039C1563.33 102.962 1562.84 102.873 1562.3 102.761L1562.3 102.759ZM1543.09 131.961C1543.72 133.155 1544.28 134.36 1544.82 135.599C1545.62 134.676 1546.41 133.689 1547.13 132.712C1545.78 132.495 1544.45 132.239 1543.09 131.956L1543.09 131.961ZM1562.3 102.759C1562.65 103.352 1563 104.006 1563.35 104.6C1563.53 104.058 1563.74 103.544 1563.89 103.039C1563.33 102.962 1562.84 102.873 1562.3 102.761L1562.3 102.759ZM1543.09 131.961C1543.72 133.155 1544.28 134.36 1544.82 135.599C1545.62 134.676 1546.41 133.689 1547.13 132.712C1545.78 132.495 1544.45 132.239 1543.09 131.956L1543.09 131.961ZM1562.3 102.759C1562.65 103.352 1563 104.006 1563.35 104.6C1563.53 104.058 1563.74 103.544 1563.89 103.039C1563.33 102.962 1562.84 102.873 1562.3 102.761L1562.3 102.759ZM1543.09 131.961C1543.72 133.155 1544.28 134.36 1544.82 135.599C1545.62 134.676 1546.41 133.689 1547.13 132.712C1545.78 132.495 1544.45 132.239 1543.09 131.956L1543.09 131.961ZM1562.3 102.759C1562.65 103.352 1563 104.006 1563.35 104.6C1563.53 104.058 1563.74 103.544 1563.89 103.039C1563.33 102.962 1562.84 102.873 1562.3 102.761L1562.3 102.759ZM1560.52 85.2866C1550.93 117.251 1528.76 146.055 1499.46 162.104C1500.48 164.207 1501.48 166.407 1502.49 168.672C1506.91 166.732 1511.23 164.386 1515.41 161.772C1518.62 169.536 1521.99 177.311 1525.66 184.912C1527.35 185.273 1529.05 185.633 1530.75 186.057C1526.68 178.099 1522.27 170.282 1517.69 162.625C1528.22 163.933 1538.87 164.996 1549.48 165.36C1548.73 163.346 1548.06 161.225 1547.43 159.131C1537.24 159.193 1527.04 159.861 1516.88 160.85C1526.15 154.78 1534.76 147.198 1542.2 138.759C1543.07 137.729 1543.98 136.662 1544.82 135.602C1544.28 134.361 1543.72 133.157 1543.09 131.964C1544.45 132.245 1545.78 132.499 1547.13 132.72C1547.92 131.732 1548.69 130.686 1549.44 129.672C1554.31 122.965 1558.47 115.847 1561.68 108.583C1562.26 107.274 1562.8 105.938 1563.35 104.602C1563 104.009 1562.65 103.355 1562.3 102.761C1562.83 102.876 1563.33 102.963 1563.89 103.04C1564.14 102.391 1564.4 101.742 1564.62 101.064C1566.27 96.2824 1567.52 91.4941 1568.24 86.7547C1565.66 86.3005 1563.07 85.7809 1560.52 85.2893L1560.52 85.2866ZM1562.3 102.759C1562.65 103.352 1563 104.006 1563.35 104.6C1563.53 104.058 1563.74 103.544 1563.89 103.039C1563.33 102.962 1562.84 102.873 1562.3 102.761L1562.3 102.759ZM1543.09 131.961C1543.72 133.155 1544.28 134.36 1544.82 135.599C1545.62 134.676 1546.41 133.689 1547.13 132.712C1545.78 132.495 1544.45 132.239 1543.09 131.956L1543.09 131.961ZM1516.88 160.847C1516.31 160.868 1515.7 160.924 1515.1 160.984C1515.2 161.225 1515.34 161.496 1515.41 161.776C1518.62 169.54 1521.99 177.316 1525.66 184.917C1527.35 185.277 1529.05 185.638 1530.75 186.061C1526.68 178.103 1522.27 170.287 1517.69 162.63C1528.22 163.938 1538.87 165.001 1549.48 165.365C1548.73 163.351 1548.06 161.23 1547.43 159.136C1537.24 159.197 1527.04 159.866 1516.88 160.854L1516.88 160.847ZM1549.45 129.67C1546.59 129.739 1543.69 129.877 1540.8 130.145L1540.87 131.1C1541.26 133.684 1541.67 136.23 1542.2 138.756C1543.54 145.639 1545.32 152.456 1547.43 159.129C1549.65 159.092 1551.84 159.091 1554.09 159.078C1551.52 151.057 1548.49 143.2 1544.82 135.599C1544.28 134.358 1543.72 133.155 1543.09 131.961C1544.45 132.242 1545.78 132.497 1547.13 132.717C1554.95 134.201 1562.89 135.279 1570.79 135.976C1569.95 134.007 1569.2 131.995 1568.48 129.946C1562.15 129.626 1555.82 129.469 1549.45 129.67ZM1516.88 160.847C1516.31 160.868 1515.7 160.924 1515.1 160.984C1515.2 161.225 1515.34 161.496 1515.41 161.776C1518.62 169.54 1521.99 177.316 1525.66 184.917C1527.35 185.277 1529.05 185.638 1530.75 186.061C1526.68 178.103 1522.27 170.287 1517.69 162.63C1528.22 163.938 1538.87 165.001 1549.48 165.365C1548.73 163.351 1548.06 161.23 1547.43 159.136C1537.24 159.197 1527.04 159.866 1516.88 160.854L1516.88 160.847ZM1549.45 129.67C1546.59 129.739 1543.69 129.877 1540.8 130.145L1540.87 131.1C1541.26 133.684 1541.67 136.23 1542.2 138.756C1543.54 145.639 1545.32 152.456 1547.43 159.129C1549.65 159.092 1551.84 159.091 1554.09 159.078C1551.52 151.057 1548.49 143.2 1544.82 135.599C1544.28 134.358 1543.72 133.155 1543.09 131.961C1544.45 132.242 1545.78 132.497 1547.13 132.717C1554.95 134.201 1562.89 135.279 1570.79 135.976C1569.95 134.007 1569.2 131.995 1568.48 129.946C1562.15 129.626 1555.82 129.469 1549.45 129.67ZM1516.88 160.847C1516.31 160.868 1515.7 160.924 1515.1 160.984C1515.2 161.225 1515.34 161.496 1515.41 161.776C1518.62 169.54 1521.99 177.316 1525.66 184.917C1527.35 185.277 1529.05 185.638 1530.75 186.061C1526.68 178.103 1522.27 170.287 1517.69 162.63C1528.22 163.938 1538.87 165.001 1549.48 165.365C1548.73 163.351 1548.06 161.23 1547.43 159.136C1537.24 159.197 1527.04 159.866 1516.88 160.854L1516.88 160.847ZM1549.45 129.67C1546.59 129.739 1543.69 129.877 1540.8 130.145L1540.87 131.1C1541.26 133.684 1541.67 136.23 1542.2 138.756C1543.54 145.639 1545.32 152.456 1547.43 159.129C1549.65 159.092 1551.84 159.091 1554.09 159.078C1551.52 151.057 1548.49 143.2 1544.82 135.599C1544.28 134.358 1543.72 133.155 1543.09 131.961C1544.45 132.242 1545.78 132.497 1547.13 132.717C1554.95 134.201 1562.89 135.279 1570.79 135.976C1569.95 134.007 1569.2 131.995 1568.48 129.946C1562.15 129.626 1555.82 129.469 1549.45 129.67ZM1516.88 160.847C1516.31 160.868 1515.7 160.924 1515.1 160.984C1515.2 161.225 1515.34 161.496 1515.41 161.776C1518.62 169.54 1521.99 177.316 1525.66 184.917C1527.35 185.277 1529.05 185.638 1530.75 186.061C1526.68 178.103 1522.27 170.287 1517.69 162.63C1528.22 163.938 1538.87 165.001 1549.48 165.365C1548.73 163.351 1548.06 161.23 1547.43 159.136C1537.24 159.197 1527.04 159.866 1516.88 160.854L1516.88 160.847ZM1549.45 129.67C1546.59 129.739 1543.69 129.877 1540.8 130.145L1540.87 131.1C1541.26 133.684 1541.67 136.23 1542.2 138.756C1543.54 145.639 1545.32 152.456 1547.43 159.129C1549.65 159.092 1551.84 159.091 1554.09 159.078C1551.52 151.057 1548.49 143.2 1544.82 135.599C1544.28 134.358 1543.72 133.155 1543.09 131.961C1544.45 132.242 1545.78 132.497 1547.13 132.717C1554.95 134.201 1562.89 135.279 1570.79 135.976C1569.95 134.007 1569.2 131.995 1568.48 129.946C1562.15 129.626 1555.82 129.469 1549.45 129.67ZM1562.3 102.759C1562.65 103.352 1563 104.006 1563.35 104.6C1563.53 104.058 1563.74 103.544 1563.89 103.039C1563.33 102.962 1562.84 102.873 1562.3 102.761L1562.3 102.759ZM1562.3 102.759C1562.65 103.352 1563 104.006 1563.35 104.6C1563.53 104.058 1563.74 103.544 1563.89 103.039C1563.33 102.962 1562.84 102.873 1562.3 102.761L1562.3 102.759ZM1562.3 102.759C1562.65 103.352 1563 104.006 1563.35 104.6C1563.53 104.058 1563.74 103.544 1563.89 103.039C1563.33 102.962 1562.84 102.873 1562.3 102.761L1562.3 102.759ZM1562.3 102.759C1562.65 103.352 1563 104.006 1563.35 104.6C1563.53 104.058 1563.74 103.544 1563.89 103.039C1563.33 102.962 1562.84 102.873 1562.3 102.761L1562.3 102.759ZM1562.3 102.759C1562.65 103.352 1563 104.006 1563.35 104.6C1563.53 104.058 1563.74 103.544 1563.89 103.039C1563.33 102.962 1562.84 102.873 1562.3 102.761L1562.3 102.759ZM1579.9 85.93C1580.31 86.9627 1580.72 87.998 1581.16 89.0586C1583.09 93.7943 1585.23 98.4676 1587.51 103.024C1579.89 102.187 1572.27 101.578 1564.63 101.066C1564.4 101.741 1564.15 102.393 1563.89 103.042C1572.51 104.73 1581.13 106.254 1589.85 107.508C1593.69 114.954 1597.95 122.212 1602.28 129.358C1601.48 130.666 1600.65 132.013 1599.82 133.358C1591.55 131.876 1583.24 130.98 1574.95 130.374C1571.53 121.61 1567.86 112.946 1563.35 104.602C1562.8 105.938 1562.26 107.274 1561.68 108.583C1563.59 115.832 1565.87 122.963 1568.48 129.946C1562.15 129.626 1555.82 129.469 1549.45 129.67C1546.59 129.739 1543.69 129.877 1540.8 130.145L1540.87 131.1C1541.26 133.684 1541.67 136.23 1542.2 138.756C1543.54 145.639 1545.32 152.456 1547.43 159.129C1548.06 161.224 1548.73 163.346 1549.48 165.357C1552.01 172.902 1554.98 180.318 1558.09 187.677C1556.68 189.207 1555.29 190.699 1553.8 192.175C1546.16 189.927 1538.48 187.809 1530.75 186.059C1529.05 185.635 1527.36 185.275 1525.66 184.914C1519.94 183.699 1514.22 182.646 1508.43 181.828C1507.58 181.697 1506.68 181.54 1505.8 181.444L1505.45 182.976C1506.81 183.418 1508.13 183.9 1509.51 184.307C1515.6 186.302 1521.75 188.064 1527.96 189.592C1529.7 190.044 1531.4 190.467 1533.14 190.856C1539.2 192.276 1545.31 193.498 1551.43 194.62C1555.43 195.348 1559.42 196.013 1563.44 196.641C1562.65 192.639 1561.81 188.644 1560.9 184.658C1559.46 178.208 1557.87 171.813 1556 165.491C1555.4 163.36 1554.76 161.265 1554.13 159.106L1554.09 159.08C1551.52 151.059 1548.49 143.202 1544.82 135.601C1544.28 134.36 1543.72 133.157 1543.09 131.963C1544.45 132.244 1545.78 132.499 1547.13 132.719C1554.95 134.203 1562.9 135.281 1570.79 135.978C1572.94 136.176 1575.06 136.345 1577.23 136.442C1584.02 136.886 1590.81 137.04 1597.63 136.835C1601.16 136.765 1604.71 136.593 1608.25 136.359C1606.8 133.097 1605.35 129.833 1603.85 126.643C1601.03 120.398 1598.09 114.234 1594.9 108.171C1594.13 106.645 1593.3 105.126 1592.49 103.633C1589.89 98.8359 1587.16 94.1208 1584.17 89.5433C1583.24 88.071 1582.29 86.6343 1581.3 85.1716L1579.89 85.928L1579.9 85.93ZM1562.3 102.759C1562.65 103.352 1563 104.006 1563.35 104.6C1563.53 104.058 1563.74 103.544 1563.89 103.039C1563.33 102.962 1562.84 102.873 1562.3 102.761L1562.3 102.759ZM1562.3 102.759C1562.65 103.352 1563 104.006 1563.35 104.6C1563.53 104.058 1563.74 103.544 1563.89 103.039C1563.33 102.962 1562.84 102.873 1562.3 102.761L1562.3 102.759ZM1562.3 102.759C1562.65 103.352 1563 104.006 1563.35 104.6C1563.53 104.058 1563.74 103.544 1563.89 103.039C1563.33 102.962 1562.84 102.873 1562.3 102.761L1562.3 102.759ZM1562.3 102.759C1562.65 103.352 1563 104.006 1563.35 104.6C1563.53 104.058 1563.74 103.544 1563.89 103.039C1563.33 102.962 1562.84 102.873 1562.3 102.761L1562.3 102.759ZM1562.3 102.759C1562.65 103.352 1563 104.006 1563.35 104.6C1563.53 104.058 1563.74 103.544 1563.89 103.039C1563.33 102.962 1562.84 102.873 1562.3 102.761L1562.3 102.759ZM1543.09 131.961C1543.72 133.155 1544.28 134.36 1544.82 135.599C1545.62 134.676 1546.41 133.689 1547.13 132.712C1545.78 132.495 1544.45 132.239 1543.09 131.956L1543.09 131.961ZM1543.09 131.961C1543.72 133.155 1544.28 134.36 1544.82 135.599C1545.62 134.676 1546.41 133.689 1547.13 132.712C1545.78 132.495 1544.45 132.239 1543.09 131.956L1543.09 131.961ZM1543.09 131.961C1543.72 133.155 1544.28 134.36 1544.82 135.599C1545.62 134.676 1546.41 133.689 1547.13 132.712C1545.78 132.495 1544.45 132.239 1543.09 131.956L1543.09 131.961ZM1543.09 131.961C1543.72 133.155 1544.28 134.36 1544.82 135.599C1545.62 134.676 1546.41 133.689 1547.13 132.712C1545.78 132.495 1544.45 132.239 1543.09 131.956L1543.09 131.961ZM1543.09 131.961C1543.72 133.155 1544.28 134.36 1544.82 135.599C1545.62 134.676 1546.41 133.689 1547.13 132.712C1545.78 132.495 1544.45 132.239 1543.09 131.956L1543.09 131.961ZM1613.91 107.196C1606.82 105.637 1599.67 104.473 1592.49 103.636C1590.82 103.402 1589.18 103.193 1587.51 103.022C1579.89 102.185 1572.26 101.576 1564.62 101.064C1563 100.984 1561.37 100.838 1559.75 100.756C1560.37 103.401 1561.01 106.008 1561.68 108.583C1563.59 115.832 1565.87 122.963 1568.48 129.946C1562.15 129.626 1555.82 129.469 1549.45 129.67C1548.7 130.681 1547.92 131.729 1547.13 132.717C1554.95 134.201 1562.89 135.279 1570.79 135.976C1573.98 144.065 1577.62 151.93 1581.69 159.662C1581.26 160.241 1580.83 160.82 1580.37 161.371C1571.7 159.982 1562.9 159.287 1554.13 159.106L1554.09 159.08C1551.52 151.059 1548.49 143.202 1544.82 135.601C1543.98 136.661 1543.08 137.726 1542.2 138.758C1543.54 145.641 1545.32 152.458 1547.44 159.131C1537.24 159.192 1527.04 159.86 1516.89 160.849C1516.31 160.87 1515.71 160.926 1515.1 160.986C1515.2 161.227 1515.34 161.498 1515.41 161.778C1518.62 169.542 1521.99 177.318 1525.66 184.919C1526.38 186.517 1527.13 188.083 1527.96 189.599C1530.96 195.69 1534.18 201.618 1537.62 207.42C1538.83 209.495 1540.1 211.56 1541.39 213.589L1542.83 212.863C1541.89 210.426 1540.91 207.963 1539.89 205.573C1537.8 200.604 1535.56 195.69 1533.14 190.862C1532.38 189.236 1531.6 187.645 1530.76 186.065C1526.68 178.107 1522.28 170.291 1517.7 162.634C1528.22 163.942 1538.87 165.005 1549.48 165.369C1551.65 165.466 1553.82 165.502 1556 165.5C1563.35 165.573 1570.65 165.266 1577.99 164.435C1580.05 164.225 1582.17 163.946 1584.25 163.638L1585.22 163.461C1584.74 161.312 1584.26 159.16 1583.69 157.057C1581.92 150.076 1579.68 143.198 1577.23 136.448C1576.58 134.677 1575.94 132.906 1575.26 131.17C1575.16 130.93 1575.05 130.624 1574.95 130.378C1571.53 121.614 1567.87 112.95 1563.35 104.606C1563.01 104.013 1562.65 103.359 1562.31 102.765C1562.84 102.88 1563.33 102.967 1563.89 103.044C1572.51 104.732 1581.13 106.256 1589.85 107.51C1591.53 107.744 1593.23 107.943 1594.91 108.177C1600.91 108.932 1606.85 109.47 1612.9 109.701C1614.82 109.835 1616.69 109.88 1618.63 109.916L1618.85 108.339C1617.18 107.941 1615.55 107.573 1613.92 107.202L1613.91 107.196ZM1543.09 131.961C1543.72 133.155 1544.28 134.36 1544.82 135.599C1545.62 134.676 1546.41 133.689 1547.13 132.712C1545.78 132.495 1544.45 132.239 1543.09 131.956L1543.09 131.961ZM1543.09 131.961C1543.72 133.155 1544.28 134.36 1544.82 135.599C1545.62 134.676 1546.41 133.689 1547.13 132.712C1545.78 132.495 1544.45 132.239 1543.09 131.956L1543.09 131.961ZM1543.09 131.961C1543.72 133.155 1544.28 134.36 1544.82 135.599C1545.62 134.676 1546.41 133.689 1547.13 132.712C1545.78 132.495 1544.45 132.239 1543.09 131.956L1543.09 131.961ZM1543.09 131.961C1543.72 133.155 1544.28 134.36 1544.82 135.599C1545.62 134.676 1546.41 133.689 1547.13 132.712C1545.78 132.495 1544.45 132.239 1543.09 131.956L1543.09 131.961ZM1543.09 131.961C1543.72 133.155 1544.28 134.36 1544.82 135.599C1545.62 134.676 1546.41 133.689 1547.13 132.712C1545.78 132.495 1544.45 132.239 1543.09 131.956L1543.09 131.961ZM1517.68 83.0941C1517.35 83.753 1516.96 84.3601 1516.61 84.9905C1510.54 95.5752 1503.41 105.418 1495.23 114.547C1494.73 115.072 1494.23 115.595 1493.76 116.149C1491.13 119.016 1488.39 121.804 1485.51 124.548C1508.98 117.407 1526.3 92.6355 1525.1 68.1902C1522.84 73.3542 1520.39 78.3174 1517.68 83.0961L1517.68 83.0941ZM1485.88 -17.3882C1512.86 1.11998 1572.45 54.715 1568.65 83.4728C1565.81 83.378 1562.93 83.3208 1560.1 83.2894L1560.03 83.2984L1559.26 83.2842L1559.04 83.9593C1549.68 116.66 1527.02 144.315 1497.78 161.419C1498.34 164.297 1498.95 167.103 1499.62 169.902C1498.43 170.368 1497.25 170.832 1496.05 171.234C1471.9 176.19 1411.15 135.576 1385.76 116.283C1383.23 117.656 1379.99 117.491 1377.49 115.64C1373.98 113.036 1373.29 108.088 1375.86 104.618C1378.44 101.147 1383.38 100.385 1386.88 102.987C1387.17 103.202 1387.44 103.452 1387.64 103.712C1387.96 103.952 1388.23 104.268 1388.44 104.59C1390.55 107.273 1390.67 111.118 1388.52 114.011C1388.46 114.084 1388.41 114.156 1388.32 114.203C1413.57 128.01 1439.41 141.245 1466 152.119C1474.21 154.961 1483.81 159.398 1492.27 158.725C1496.73 156.874 1508.06 150.98 1514.04 145.946C1534.2 129.896 1552.12 106.807 1555.72 80.8783C1556.13 79.9485 1555.92 78.0492 1555.36 75.8463C1544.88 48.4938 1523 26.5276 1503.9 4.72934C1497.49 -2.04826 1491.02 -8.81351 1484.13 -15.1051C1482.06 -13.2205 1479.19 -12.6051 1476.62 -13.4474C1473.69 -5.19073 1470.36 2.93035 1466.53 10.8014C1467.01 10.9887 1467.47 11.2737 1467.9 11.5961C1470.18 13.2862 1471.32 15.9825 1471.07 18.657C1481.53 25.5762 1491.15 33.8401 1499.41 43.3379C1504.09 48.6638 1508.38 54.3725 1512.17 60.3775C1510.87 60.9891 1509.55 61.6336 1508.28 62.3687C1497.09 47.4481 1483.45 34.4634 1467.85 24.2833C1465.44 26.088 1462.07 26.3299 1459.36 24.7655C1455.29 32.0639 1450.87 39.1544 1446.09 46.0415C1447.55 47.4016 1448.33 49.2193 1448.44 51.037C1453.76 55.6578 1461.97 62.8773 1470.51 70.335C1475.55 74.8035 1480.72 79.3168 1485.39 83.4558L1485.28 83.6006C1484.56 84.6402 1483.89 85.705 1483.19 86.8701C1483.07 87.1132 1482.9 87.3304 1482.78 87.5755L1441.98 59.3646C1440.29 59.6796 1438.45 59.4355 1436.86 58.4795C1431.66 65.1069 1426.09 71.4028 1420.25 77.3854C1420.01 77.098 1419.75 76.8481 1419.46 76.6331C1418.12 75.6398 1416.53 75.1347 1414.92 75.1153C1421.17 67.9791 1427.18 60.7165 1432.92 53.206C1432.51 51.498 1432.78 49.6224 1433.66 47.9781C1433.78 47.6723 1433.98 47.3192 1434.2 47.0296L1434.31 46.8848C1434.57 46.5227 1434.88 46.1866 1435.26 45.9061C1435.42 45.6889 1435.62 45.563 1435.86 45.3995C1437.03 44.4211 1438.5 43.8822 1439.97 43.7941C1445.51 36.2485 1450.77 28.4833 1455.77 20.5336C1454.97 18.1409 1455.27 15.394 1456.88 13.2245C1458.19 11.4519 1460.1 10.399 1462.11 10.1012C1466.74 2.2075 1471.12 -5.81055 1475.21 -14.0436C1474.87 -14.1862 1474.52 -14.3922 1474.19 -14.6351C1470.69 -17.2388 1469.96 -22.1522 1472.56 -25.6572C1475.17 -29.1623 1480.08 -29.8894 1483.59 -27.2876C1486.73 -24.9526 1487.65 -20.7429 1485.89 -17.3936L1485.88 -17.3882ZM1473.92 115.832C1473.76 117.175 1473.72 118.598 1473.77 120.039C1452.64 114.956 1432.82 104.725 1416.26 90.6952C1414.16 91.103 1411.9 90.6633 1410.06 89.2958C1409.63 88.9733 1409.26 88.6438 1408.94 88.2392C1402.47 94.0907 1395.62 99.5446 1388.44 104.595C1388.23 104.272 1387.96 103.959 1387.64 103.716C1394.29 97.3255 1400.75 90.738 1406.95 83.9613C1406.7 82.0361 1407.17 79.9691 1408.43 78.2716C1410.01 76.1369 1412.46 75.0353 1414.92 75.1226C1416.53 75.142 1418.12 75.6472 1419.46 76.6405C1419.75 76.8555 1420.01 77.1053 1420.25 77.3927C1422.83 79.8114 1423.4 83.7155 1421.61 86.8145C1436.52 99.2858 1453.73 109.034 1472.16 115.256C1472.74 115.46 1473.32 115.665 1473.92 115.834L1473.92 115.832Z" fill="#1C1A1A"/>
</g>
</g>
<defs>
<clipPath id="clip0_724_444">
<rect width="1512" height="889" fill="white"/>
</clipPath>
</defs>
</svg>
