<svg width="30" height="24" viewBox="0 0 30 24" fill="none" xmlns="http://www.w3.org/2000/svg">
<path d="M12 17.1429L19.785 12L12 6.85714V17.1429ZM29.34 3.72C29.535 4.52571 29.67 5.60571 29.76 6.97714C29.865 8.34857 29.91 9.53143 29.91 10.56L30 12C30 15.7543 29.76 18.5143 29.34 20.28C28.965 21.8229 28.095 22.8171 26.745 23.2457C26.04 23.4686 24.75 23.6229 22.77 23.7257C20.82 23.8457 19.035 23.8971 17.385 23.8971L15 24C8.715 24 4.8 23.7257 3.255 23.2457C1.905 22.8171 1.035 21.8229 0.66 20.28C0.465 19.4743 0.33 18.3943 0.24 17.0229C0.135 15.6514 0.0899999 14.4686 0.0899999 13.44L0 12C0 8.24571 0.24 5.48571 0.66 3.72C1.035 2.17714 1.905 1.18286 3.255 0.754286C3.96 0.531429 5.25 0.377143 7.23 0.274285C9.18 0.154285 10.965 0.102857 12.615 0.102857L15 0C21.285 0 25.2 0.274286 26.745 0.754286C28.095 1.18286 28.965 2.17714 29.34 3.72Z" fill="#FAF7F3"/>
</svg>
